<?xml version="1.0" encoding="UTF-8"?>
<svg width="30px" height="30px" viewBox="0 0 30 30" version="1.1" xmlns="http://www.w3.org/2000/svg" xmlns:xlink="http://www.w3.org/1999/xlink">
    <title>切片</title>
    <defs>
        <linearGradient x1="79.8177338%" y1="87.0384598%" x2="34.1544342%" y2="0%" id="linearGradient-1">
            <stop stop-color="#FFD59C" offset="0%"></stop>
            <stop stop-color="#FFE1BA" offset="100%"></stop>
        </linearGradient>
        <path d="M8.71925994,0.0526525862 L8.99766883,0.0526525862 C14.4306093,0.0526525862 17.2107308,5.53808805 17.2107308,9.16421595 C17.5979065,9.39652137 17.7234537,9.89871002 17.4911482,10.2858857 C17.3433979,10.5321363 17.0772797,10.6828098 16.7901046,10.6828098 L0.864689354,10.6828098 C0.42197176,10.6828098 0.0630782383,10.3239163 0.0630782383,9.88119873 C0.0630782383,9.60287316 0.207225104,9.34644484 0.440429976,9.2010494 L0.506197965,9.16421595 C0.506197965,5.53808805 3.22663756,0.0526525862 8.71925994,0.0526525862 Z" id="path-2"></path>
        <circle id="path-4" cx="2.46791145" cy="2.46791145" r="2.46791145"></circle>
        <filter x="-30.4%" y="-30.4%" width="160.8%" height="160.8%" filterUnits="objectBoundingBox" id="filter-5">
            <feOffset dx="-3" dy="0" in="SourceAlpha" result="shadowOffsetInner1"></feOffset>
            <feComposite in="shadowOffsetInner1" in2="SourceAlpha" operator="arithmetic" k2="-1" k3="1" result="shadowInnerInner1"></feComposite>
            <feColorMatrix values="0 0 0 0 0.909803922   0 0 0 0 0.905882353   0 0 0 0 0.91372549  0 0 0 1 0" type="matrix" in="shadowInnerInner1"></feColorMatrix>
        </filter>
    </defs>
    <g id="页面-1" stroke="none" stroke-width="1" fill="none" fill-rule="evenodd">
        <g id="01保险-我的保单" transform="translate(-1357.000000, -24.000000)">
            <g id="编组-3" transform="translate(1347.000000, 15.000000)">
                <g id="编组-8备份-2" transform="translate(10.000000, 9.000000)">
                    <g id="编组-11" fill="url(#linearGradient-1)">
                        <circle id="椭圆形" cx="15" cy="15" r="15"></circle>
                    </g>
                    <g id="编组-4" transform="translate(6.000000, 9.000000)">
                        <g id="头" transform="translate(0.000000, 0.959743)">
                            <mask id="mask-3" fill="white">
                                <use xlink:href="#path-2"></use>
                            </mask>
                            <use id="帽体" fill="#FF8200" xlink:href="#path-2"></use>
                            <path d="M5.59393863,-0.017138274 L8.98954925,-0.017138274 C12.6723938,-0.017138274 15.5796885,5.13845186 15.5796885,9.34721988 L16.112065,9.65325606 C16.3746565,9.80420653 16.4651593,10.1394485 16.3142089,10.4020399 C16.2163776,10.5722259 16.0350463,10.6771447 15.838745,10.6771447 L-1.13053613,10.6771447 C-1.43342276,10.6771447 -1.6789609,10.4316066 -1.6789609,10.1287199 C-1.6789609,9.91542952 -1.55529825,9.72148577 -1.36192093,9.63149684 L-0.751037815,9.34721988 C-0.751037815,5.13845186 1.91109409,-0.017138274 5.59393863,-0.017138274 Z" id="帽子阴影" fill="#FF9600" mask="url(#mask-3)"></path>
                            <polygon id="矩形" fill="#17173A" fill-rule="nonzero" mask="url(#mask-3)" points="0.307251168 6.23833173 17.1159228 6.23833173 17.1159228 7.91788258 0.307251168 7.91788258"></polygon>
                        </g>
                        <g id="灯" transform="translate(6.254232, 5.467109)">
                            <circle fill-opacity="0.119427448" fill="#000000" cx="2.60501765" cy="2.46791145" r="2.46791145"></circle>
                            <g>
                                <use fill="#FFFFFF" fill-rule="evenodd" xlink:href="#path-4"></use>
                                <use fill="black" fill-opacity="1" filter="url(#filter-5)" xlink:href="#path-4"></use>
                                <circle stroke="#17173A" stroke-width="1.01239593" stroke-linejoin="square" cx="2.46791145" cy="2.46791145" r="1.96171349"></circle>
                            </g>
                        </g>
                        <g id="编组" transform="translate(7.265390, 0.000000)" fill-rule="nonzero">
                            <path d="M0.589152943,2.4100242 C0.192082435,1.60846257 0.0668343564,1.36941103 0.14612668,1.05043669 C0.269471987,0.554823817 0.827928023,0.101292429 1.46832504,0.109162689 C2.0270703,0.116041541 2.53775914,0.47374183 2.7556494,1.01558486 C2.78947996,1.12493045 2.71556693,1.50191916 2.27986067,2.43285773 C2.00838813,3.02477437 1.71220916,3.71816513 1.45900907,4.18797095 C1.17183952,3.59395935 0.881884272,3.00130388 0.589152943,2.4100242 Z" id="路径" fill="#FF8A00"></path>
                            <path d="M0.463024793,2.40862576 C0.0681608386,1.61135056 -0.0563912263,1.37357737 0.0224604638,1.05630878 C0.14512033,0.563346236 0.70047298,0.11224015 1.33731126,0.120068324 C1.89295152,0.12691039 2.40080243,0.482697844 2.61748185,1.02164332 C2.65112441,1.13040417 2.57762212,1.5053769 2.14433712,2.43133719 C1.87437317,3.02008849 1.57984009,3.70977129 1.32804706,4.17706478 C1.04247333,3.58622971 0.75412939,2.99674352 0.463024793,2.40862576 Z" id="路径" fill="#FFAA30"></path>
                        </g>
                        <g id="编组-2" transform="translate(2.218981, 2.399358)" fill-rule="nonzero">
                            <path d="M2.78767008,1.07628462 C2.46790585,0.777223638 2.12043301,0.511291821 1.75025803,0.282320762 C1.70397055,0.270178681 1.07423821,0.11671709 0.612433534,0.558456161 C0.228121691,0.926015168 0.125626965,1.54728998 0.378104098,2.07740968 C0.71721299,1.99741216 1.13630189,1.93403169 1.61631211,1.93934198 C2.65894434,1.95073824 3.47606793,2.28003626 3.95894129,2.52618937 C3.70858983,2.11077803 3.3334169,1.58696804 2.78767008,1.07628462 Z" id="路径" fill="#FF8A00" transform="translate(2.099439, 1.386494) rotate(7.000000) translate(-2.099439, -1.386494) "></path>
                            <path d="M3.84673069,2.39935836 C3.60445499,2.00581432 3.24139096,1.50956967 2.71324334,1.02575743 C2.4037963,0.742433365 2.06752935,0.490500346 1.70928925,0.273589583 C1.66449471,0.262079162 1.05507496,0.116707874 0.608170952,0.535188754 C0.236262133,0.883397 0.137072182,1.47196992 0.381402153,1.97419308 C0.709572098,1.89840293 1.11513389,1.83835858 1.57965613,1.8434007 C2.58868884,1.85417641 3.37944088,2.16616789 3.84673069,2.39935836 Z" id="路径" fill="#FFAA30" transform="translate(2.047212, 1.319647) rotate(7.000000) translate(-2.047212, -1.319647) "></path>
                        </g>
                        <g id="编组-2" transform="translate(12.933273, 3.899358) scale(-1, 1) translate(-12.933273, -3.899358) translate(10.683273, 2.399358)" fill-rule="nonzero">
                            <path d="M2.78767008,1.19625253 C2.46790585,0.897191556 2.12043301,0.631259739 1.75025803,0.40228868 C1.70397055,0.390146599 1.07423821,0.236685007 0.612433534,0.678424079 C0.228121691,1.04598309 0.125626965,1.6672579 0.378104098,2.1973776 C0.71721299,2.11738008 1.13630189,2.05399961 1.61631211,2.0593099 C2.65894434,2.07070615 3.47606793,2.40000418 3.95894129,2.64615729 C3.70858983,2.23074595 3.3334169,1.70693595 2.78767008,1.19625253 Z" id="路径" fill="#FF8A00" transform="translate(2.099439, 1.506462) rotate(7.000000) translate(-2.099439, -1.506462) "></path>
                            <path d="M3.84673069,2.39935836 C3.60445499,2.00581432 3.24139096,1.50956967 2.71324334,1.02575743 C2.4037963,0.742433365 2.06752935,0.490500346 1.70928925,0.273589583 C1.66449471,0.262079162 1.05507496,0.116707874 0.608170952,0.535188754 C0.236262133,0.883397 0.137072182,1.47196992 0.381402153,1.97419308 C0.709572098,1.89840293 1.11513389,1.83835858 1.57965613,1.8434007 C2.58868884,1.85417641 3.37944088,2.16616789 3.84673069,2.39935836 Z" id="路径" fill="#FFAA30" transform="translate(2.047212, 1.319647) rotate(7.000000) translate(-2.047212, -1.319647) "></path>
                        </g>
                    </g>
                </g>
            </g>
        </g>
    </g>
</svg>