<?xml version="1.0" encoding="UTF-8"?>
<svg width="40px" height="40px" viewBox="0 0 40 40" version="1.1" xmlns="http://www.w3.org/2000/svg" xmlns:xlink="http://www.w3.org/1999/xlink">
    <title>切片</title>
    <defs>
        <filter id="filter-1">
            <feColorMatrix in="SourceGraphic" type="matrix" values="0 0 0 0 0.674510 0 0 0 0 0.674510 0 0 0 0 0.674510 0 0 0 1.000000 0"></feColorMatrix>
        </filter>
    </defs>
    <g id="页面-1" stroke="none" stroke-width="1" fill="none" fill-rule="evenodd">
        <g id="jiazai" transform="translate(-984.000000, -554.000000)" filter="url(#filter-1)">
            <g transform="translate(984.000000, 554.000000)" fill="#DBDBDB" fill-rule="nonzero" id="路径">
                <path d="M29.1742158,8.65923969 C29.1742158,9.83179093 30.1247564,10.7823315 31.2973076,10.7823315 C32.4698589,10.7823315 33.4203995,9.83179093 33.4203995,8.65923969 C33.4203995,7.48668844 32.4698589,6.53614785 31.2973076,6.53614785 C30.1247564,6.53614785 29.1742158,7.48668844 29.1742158,8.65923969 L29.1742158,8.65923969 Z"></path>
                <path d="M33.1179042,20.1328104 C33.1177899,21.0691311 33.6172454,21.9343761 34.4281038,22.4025694 C35.2389623,22.8707628 36.2380141,22.8707628 37.0488726,22.4025694 C37.8597311,21.9343761 38.3591866,21.0691311 38.3590723,20.1328104 C38.3591866,19.1964897 37.8597311,18.3312448 37.0488726,17.8630514 C36.2380141,17.3948581 35.2389623,17.3948581 34.4281038,17.8630514 C33.6172454,18.3312448 33.1177899,19.1964897 33.1179042,20.1328104 L33.1179042,20.1328104 Z"></path>
                <path d="M28.3117293,31.6638802 C28.3117293,33.3676521 29.6929092,34.748832 31.3966811,34.748832 C33.1004529,34.748832 34.4816329,33.3676521 34.4816329,31.6638802 C34.4816329,30.5617331 33.8936444,29.5433071 32.939157,28.9922335 C31.9846696,28.4411599 30.8086925,28.4411599 29.8542051,28.9922335 C28.8997177,29.5433071 28.3117293,30.5617331 28.3117293,31.6638802 L28.3117293,31.6638802 Z"></path>
                <path d="M16.3025419,36.2750582 C16.3024084,37.5519051 16.9835215,38.7318175 18.0892811,39.3702795 C19.1950408,40.0087415 20.5574314,40.0087415 21.663191,39.3702795 C22.7689507,38.7318175 23.4500637,37.5519051 23.4499302,36.2750582 C23.4500637,34.9982113 22.7689507,33.8182989 21.663191,33.1798369 C20.5574314,32.5413749 19.1950408,32.5413749 18.0892811,33.1798369 C16.9835215,33.8182989 16.3024084,34.9982113 16.3025419,36.2750582 L16.3025419,36.2750582 Z"></path>
                <path d="M4.5264759,31.4826331 C4.5264759,32.9047512 5.28516686,34.2188426 6.51675729,34.9299017 C7.74834772,35.6409607 9.26572971,35.6409607 10.4973201,34.9299017 C11.7289106,34.2188426 12.4876015,32.9047512 12.4876015,31.4826331 C12.4876015,29.2842289 10.7054428,27.5020703 8.50703871,27.5020703 C6.30863457,27.5020703 4.5264759,29.2842289 4.5264759,31.4826331 Z"></path>
                <path d="M15.7331758,4.21368418 C15.7331758,6.54049251 17.6194266,8.42674336 19.946235,8.42674336 C22.2730433,8.42674336 24.1592941,6.54049251 24.1592941,4.21368418 C24.1592941,2.70850309 23.3562896,1.31765838 22.0527646,0.565067828 C20.7492395,-0.187522728 19.1432304,-0.187522728 17.8397053,0.565067828 C16.5361803,1.31765838 15.7331758,2.70850309 15.7331758,4.21368418 Z"></path>
                <path d="M4.29397953,8.75861316 C4.29397953,10.2637943 5.09698405,11.6546389 6.4005091,12.4072295 C7.70403416,13.15982 9.31004326,13.15982 10.6135683,12.4072295 C11.9170934,11.6546389 12.7200979,10.2637943 12.7200979,8.75861316 C12.7200979,6.43180483 10.833847,4.54555398 8.50703871,4.54555398 C6.18023038,4.54555398 4.29397953,6.43180483 4.29397953,8.75861316 L4.29397953,8.75861316 Z"></path>
                <path d="M0.0259212109,20.0003125 C0.0259212109,21.4344882 0.791044784,22.7597211 2.03307734,23.476809 C3.27510989,24.1938968 4.8053571,24.1938968 6.04738966,23.476809 C7.28942221,22.7597211 8.05454578,21.4344882 8.05454578,20.0003125 C8.05454578,17.783269 6.25727695,15.9860002 4.0402335,15.9860002 C1.82319004,15.9860002 0.0259212109,17.783269 0.0259212109,20.0003125 L0.0259212109,20.0003125 Z"></path>
            </g>
        </g>
    </g>
</svg>