<?xml version="1.0" encoding="UTF-8"?>
<svg width="132px" height="40px" viewBox="0 0 132 40" version="1.1" xmlns="http://www.w3.org/2000/svg" xmlns:xlink="http://www.w3.org/1999/xlink">
    <title>切片</title>
    <g id="页面-1" stroke="none" stroke-width="1" fill="none" fill-rule="evenodd">
        <g id="01保险-我的保单" transform="translate(-200.000000, -20.000000)">
            <g id="logo" transform="translate(200.000000, 20.000000)">
                <g id="logo-">
                    <polygon id="矩形" points="4.43534098e-14 0 132 0 132 40 4.43534098e-14 40"></polygon>
                </g>
                <g id="编组-5">
                    <rect id="矩形" x="0" y="0" width="132" height="40"></rect>
                    <path d="M54.3505964,32.1447129 C55.6606421,32.1447129 56.9051856,32.0108604 58.0842268,31.7431554 C59.263268,31.4754504 60.257194,31.0966763 61.0660049,30.6068331 L61.0660049,30.6068331 L61.0660049,22.2510195 L57.4947062,22.2510195 L57.4947062,28.5563267 C56.7086788,28.8752944 55.6834256,29.0347782 54.4189466,29.0347782 C52.3342651,29.0347782 50.6055743,28.3313406 49.2328742,26.9244654 C47.860174,25.5175901 47.173824,23.6806781 47.173824,21.4137294 C47.173824,19.1581723 47.8516303,17.3383479 49.2072428,15.9542561 C50.5628554,14.5701643 52.30009,13.8781184 54.4189466,13.8781184 C55.5467251,13.8781184 56.623241,14.0689294 57.6484942,14.4505514 C58.6737474,14.8321734 59.5566043,15.3647355 60.297065,16.0482376 L60.297065,16.0482376 L60.297065,12.2377132 C58.5541345,11.1896766 56.5378032,10.6656583 54.2480711,10.6656583 C51.1495281,10.6656583 48.5835471,11.6681281 46.5501283,13.6730677 C44.5167094,15.6780073 43.5,18.2582279 43.5,21.4137294 C43.5,24.6603645 44.4967739,27.2605206 46.4903218,29.2141975 C48.4838697,31.1678744 51.1039612,32.1447129 54.3505964,32.1447129 Z M71.1217859,32.1447129 C73.3431679,32.1447129 75.3481074,31.9168789 77.1366047,31.4612108 L77.1366047,31.4612108 L77.1366047,16.3045509 L73.7020065,16.3045509 L73.7020065,29.0689533 C72.7223201,29.2170454 71.8394632,29.2910915 71.0534357,29.2910915 C68.6042197,29.2910915 67.3796117,28.237359 67.3796117,26.1298941 L67.3796117,26.1298941 L67.3796117,16.3045509 L63.9450135,16.3045509 L63.9450135,26.3862074 C63.9450135,28.4594972 64.5544696,29.9375706 65.7733817,30.8204275 C66.9922938,31.7032844 68.7750952,32.1447129 71.1217859,32.1447129 Z M84.390027,31.8029618 L84.390027,19.8074994 C85.233013,19.47714 86.0987823,19.3119603 86.9873351,19.3119603 C88.1492887,19.3119603 89.1403668,19.47714 89.9605694,19.8074994 L89.9605694,19.8074994 L89.9605694,16.4412514 C88.9580996,16.1792422 87.9670215,16.0482376 86.9873351,16.0482376 C84.7887366,16.0482376 82.7667094,16.5665601 80.9212537,17.603205 L80.9212537,17.603205 L80.9212537,31.8029618 L84.390027,31.8029618 Z M97.5215677,32.1105378 C99.5378989,32.1105378 101.315004,31.9054872 102.852884,31.4953859 L102.852884,31.4953859 L102.852884,21.2428539 C102.852884,19.3973981 102.33741,18.0531772 101.306461,17.2101913 C100.275512,16.3672053 98.8543968,15.9457123 97.0431162,15.9457123 C95.1862687,15.9457123 93.5059926,16.3672053 92.0022879,17.2101913 L92.0022879,17.2101913 L92.0022879,20.2176007 C93.4946009,19.3746147 94.9869139,18.9531217 96.4792269,18.9531217 C97.3677797,18.9531217 98.0854569,19.1610203 98.6322586,19.5768174 C99.1790603,19.9926145 99.4524612,20.6049185 99.4524612,21.4137294 L99.4524612,21.4137294 L99.4524612,22.7123835 L97.7437058,22.7123835 C95.4653654,22.7123835 93.6996515,23.1053972 92.4465643,23.8914246 C91.1934771,24.6774521 90.5669334,25.8451016 90.5669334,27.3943731 C90.5669334,30.5384829 92.8851448,32.1105378 97.5215677,32.1105378 Z M97.5557428,29.5303172 C95.174877,29.5303172 93.9844441,28.7841607 93.9844441,27.2918478 C93.9844441,26.5286037 94.3375869,25.9590186 95.0438724,25.5830924 C95.750158,25.2071662 96.7298443,25.0192032 97.9829316,25.0192032 L97.9829316,25.0192032 L99.4524612,25.0192032 L99.4524612,29.3594417 C98.7461756,29.4733587 98.1139362,29.5303172 97.5557428,29.5303172 Z M114.156057,32.1447129 C116.38883,32.1447129 118.336811,31.9282706 120,31.4953859 L120,31.4953859 L120,8 L116.565402,8 L116.565402,16.5437767 C115.824941,16.1450671 114.799688,15.9457123 113.489642,15.9457123 C111.06321,15.9457123 109.075358,16.683325 107.526086,18.1585505 C105.976815,19.6337759 105.202179,21.6016925 105.202179,24.0623002 C105.202179,26.6254332 106.01099,28.6132852 107.628611,30.0258563 C109.246233,31.4384274 111.422048,32.1447129 114.156057,32.1447129 Z M114.224407,29.1714786 C112.515652,29.1714786 111.165735,28.7186585 110.174657,27.8130181 C109.183579,26.9073778 108.68804,25.6343551 108.68804,23.99395 C108.68804,22.4332867 109.152252,21.2086788 110.080675,20.320126 C111.009099,19.4315732 112.213772,18.9872968 113.694693,18.9872968 C114.902213,18.9872968 115.859116,19.1866516 116.565402,19.5853612 L116.565402,19.5853612 L116.565402,29.0347782 C115.8819,29.1259118 115.101568,29.1714786 114.224407,29.1714786 Z" id="Gurad" fill="#2A3749" fill-rule="nonzero"></path>
                    <path d="M21.5,5 C28.8812857,5 34.8789757,10.9238772 34.9981914,18.2767528 L35,18.5 L35,33.127907 L23.3995,35.4365 L23.4,29.0309117 L23.4014423,28.8921135 C23.4800653,25.1120154 26.7632837,22.0602971 30.834524,21.97959 L31,21.9779513 L31,18.451471 L30.2556118,18.3120706 C24.6875955,17.269357 18.9791851,17.2307166 13.4000313,18.1965793 L12.9080953,18.2844094 L12,18.451471 L12,21.9779513 L12.1571179,21.9794285 C16.1763985,22.0550707 19.4296603,25.0263352 19.5935241,28.7370771 L19.5985577,28.8921135 L19.5995,28.9845 L19.5995,35.432 L8,33.127907 L8,18.5 L8.00180861,18.2767528 C8.12102429,10.9238772 14.1187143,5 21.5,5 Z" id="路径" fill="#4364E8"></path>
                </g>
            </g>
        </g>
    </g>
</svg>