<?xml version="1.0" encoding="UTF-8"?>
<svg width="132px" height="60px" viewBox="0 0 132 60" version="1.1" xmlns="http://www.w3.org/2000/svg" xmlns:xlink="http://www.w3.org/1999/xlink">
    <title>切片</title>
    <g id="页面-1" stroke="none" stroke-width="1" fill="none" fill-rule="evenodd">
        <g id="04挖矿" transform="translate(-200.000000, -10.000000)">
            <g id="logo" transform="translate(200.000000, 10.000000)">
                <g id="logo-">
                    <polygon id="矩形" points="4.43534098e-14 0 132 0 132 40 4.43534098e-14 40"></polygon>
                </g>
                <g id="编组-5" transform="translate(0.000000, 20.000000)">
                    <rect id="矩形" x="0" y="0" width="132" height="40"></rect>
                    <path d="M53.8505964,32.1447129 C55.1606421,32.1447129 56.4051856,32.0108604 57.5842268,31.7431554 C58.763268,31.4754504 59.757194,31.0966763 60.5660049,30.6068331 L60.5660049,30.6068331 L60.5660049,22.2510195 L56.9947062,22.2510195 L56.9947062,28.5563267 C56.2086788,28.8752944 55.1834256,29.0347782 53.9189466,29.0347782 C51.8342651,29.0347782 50.1055743,28.3313406 48.7328742,26.9244654 C47.360174,25.5175901 46.673824,23.6806781 46.673824,21.4137294 C46.673824,19.1581723 47.3516303,17.3383479 48.7072428,15.9542561 C50.0628554,14.5701643 51.80009,13.8781184 53.9189466,13.8781184 C55.0467251,13.8781184 56.123241,14.0689294 57.1484942,14.4505514 C58.1737474,14.8321734 59.0566043,15.3647355 59.797065,16.0482376 L59.797065,16.0482376 L59.797065,12.2377132 C58.0541345,11.1896766 56.0378032,10.6656583 53.7480711,10.6656583 C50.6495281,10.6656583 48.0835471,11.6681281 46.0501283,13.6730677 C44.0167094,15.6780073 43,18.2582279 43,21.4137294 C43,24.6603645 43.9967739,27.2605206 45.9903218,29.2141975 C47.9838697,31.1678744 50.6039612,32.1447129 53.8505964,32.1447129 Z M70.6217859,32.1447129 C72.8431679,32.1447129 74.8481074,31.9168789 76.6366047,31.4612108 L76.6366047,31.4612108 L76.6366047,16.3045509 L73.2020065,16.3045509 L73.2020065,29.0689533 C72.2223201,29.2170454 71.3394632,29.2910915 70.5534357,29.2910915 C68.1042197,29.2910915 66.8796117,28.237359 66.8796117,26.1298941 L66.8796117,26.1298941 L66.8796117,16.3045509 L63.4450135,16.3045509 L63.4450135,26.3862074 C63.4450135,28.4594972 64.0544696,29.9375706 65.2733817,30.8204275 C66.4922938,31.7032844 68.2750952,32.1447129 70.6217859,32.1447129 Z M83.890027,31.8029618 L83.890027,19.8074994 C84.733013,19.47714 85.5987823,19.3119603 86.4873351,19.3119603 C87.6492887,19.3119603 88.6403668,19.47714 89.4605694,19.8074994 L89.4605694,19.8074994 L89.4605694,16.4412514 C88.4580996,16.1792422 87.4670215,16.0482376 86.4873351,16.0482376 C84.2887366,16.0482376 82.2667094,16.5665601 80.4212537,17.603205 L80.4212537,17.603205 L80.4212537,31.8029618 L83.890027,31.8029618 Z M97.0215677,32.1105378 C99.0378989,32.1105378 100.815004,31.9054872 102.352884,31.4953859 L102.352884,31.4953859 L102.352884,21.2428539 C102.352884,19.3973981 101.83741,18.0531772 100.806461,17.2101913 C99.7755117,16.3672053 98.3543968,15.9457123 96.5431162,15.9457123 C94.6862687,15.9457123 93.0059926,16.3672053 91.5022879,17.2101913 L91.5022879,17.2101913 L91.5022879,20.2176007 C92.9946009,19.3746147 94.4869139,18.9531217 95.9792269,18.9531217 C96.8677797,18.9531217 97.5854569,19.1610203 98.1322586,19.5768174 C98.6790603,19.9926145 98.9524612,20.6049185 98.9524612,21.4137294 L98.9524612,21.4137294 L98.9524612,22.7123835 L97.2437058,22.7123835 C94.9653654,22.7123835 93.1996515,23.1053972 91.9465643,23.8914246 C90.6934771,24.6774521 90.0669334,25.8451016 90.0669334,27.3943731 C90.0669334,30.5384829 92.3851448,32.1105378 97.0215677,32.1105378 Z M97.0557428,29.5303172 C94.674877,29.5303172 93.4844441,28.7841607 93.4844441,27.2918478 C93.4844441,26.5286037 93.8375869,25.9590186 94.5438724,25.5830924 C95.250158,25.2071662 96.2298443,25.0192032 97.4829316,25.0192032 L97.4829316,25.0192032 L98.9524612,25.0192032 L98.9524612,29.3594417 C98.2461756,29.4733587 97.6139362,29.5303172 97.0557428,29.5303172 Z M113.656057,32.1447129 C115.88883,32.1447129 117.836811,31.9282706 119.5,31.4953859 L119.5,31.4953859 L119.5,8 L116.065402,8 L116.065402,16.5437767 C115.324941,16.1450671 114.299688,15.9457123 112.989642,15.9457123 C110.56321,15.9457123 108.575358,16.683325 107.026086,18.1585505 C105.476815,19.6337759 104.702179,21.6016925 104.702179,24.0623002 C104.702179,26.6254332 105.51099,28.6132852 107.128611,30.0258563 C108.746233,31.4384274 110.922048,32.1447129 113.656057,32.1447129 Z M113.724407,29.1714786 C112.015652,29.1714786 110.665735,28.7186585 109.674657,27.8130181 C108.683579,26.9073778 108.18804,25.6343551 108.18804,23.99395 C108.18804,22.4332867 108.652252,21.2086788 109.580675,20.320126 C110.509099,19.4315732 111.713772,18.9872968 113.194693,18.9872968 C114.402213,18.9872968 115.359116,19.1866516 116.065402,19.5853612 L116.065402,19.5853612 L116.065402,29.0347782 C115.3819,29.1259118 114.601568,29.1714786 113.724407,29.1714786 Z" id="Gurad" fill="#2A3749" fill-rule="nonzero"></path>
                    <path d="M21.5,5 C28.8812857,5 34.8789757,10.9238772 34.9981914,18.2767528 L35,18.5 L35,33.127907 L23.3995,35.4365 L23.4,29.0309117 L23.4014423,28.8921135 C23.4800653,25.1120154 26.7632837,22.0602971 30.834524,21.97959 L31,21.9779513 L31,18.451471 L30.2556118,18.3120706 C24.6875955,17.269357 18.9791851,17.2307166 13.4000313,18.1965793 L12.9080953,18.2844094 L12,18.451471 L12,21.9779513 L12.1571179,21.9794285 C16.1763985,22.0550707 19.4296603,25.0263352 19.5935241,28.7370771 L19.5985577,28.8921135 L19.5995,28.9845 L19.5995,35.432 L8,33.127907 L8,18.5 L8.00180861,18.2767528 C8.12102429,10.9238772 14.1187143,5 21.5,5 Z" id="路径" fill="#4364E8"></path>
                </g>
                <g id="编组" transform="translate(67.000000, 8.000000)">
                    <path d="M2.33031996e-12,5.00861359 C2.33031996e-12,2.24243269 2.24349151,1.99732032e-17 5.00997875,4.46024971e-17 L47.9900213,4.27242288e-16 C50.7569561,4.51875567e-16 53,2.23993443 53,5.00861359 L53,11.9913864 C53,14.7575673 50.7565085,17 47.9900213,17 L2.33031996e-12,17 L2.33031996e-12,5.00861359 Z" id="Field-color备份-3" fill-opacity="0.6" fill="#DDC8FF" transform="translate(26.500000, 8.500000) scale(-1, 1) translate(-26.500000, -8.500000) "></path>
                    <text id="Polygon" font-family="IBMPlexSans-SemiBold, IBM Plex Sans SemiBold" font-size="12" font-weight="500" fill="#9F66FF">
                        <tspan x="4" y="13">Polygon</tspan>
                    </text>
                </g>
            </g>
        </g>
    </g>
</svg>