<?xml version="1.0" encoding="UTF-8"?>
<svg width="120px" height="40px" viewBox="0 0 120 40" version="1.1" xmlns="http://www.w3.org/2000/svg" xmlns:xlink="http://www.w3.org/1999/xlink">
    <title>切片</title>
    <g id="页面-1" stroke="none" stroke-width="1" fill="none" fill-rule="evenodd">
        <g id="H5_04侧栏" transform="translate(-30.000000, -20.000000)">
            <g id="编组-5" transform="translate(30.000000, 20.000000)">
                <rect id="矩形" x="0" y="0" width="120" height="40"></rect>
                <path d="M50.3505964,32.6447129 C51.6606421,32.6447129 52.9051856,32.5108604 54.0842268,32.2431554 C55.263268,31.9754504 56.257194,31.5966763 57.0660049,31.1068331 L57.0660049,31.1068331 L57.0660049,22.7510195 L53.4947062,22.7510195 L53.4947062,29.0563267 C52.7086788,29.3752944 51.6834256,29.5347782 50.4189466,29.5347782 C48.3342651,29.5347782 46.6055743,28.8313406 45.2328742,27.4244654 C43.860174,26.0175901 43.173824,24.1806781 43.173824,21.9137294 C43.173824,19.6581723 43.8516303,17.8383479 45.2072428,16.4542561 C46.5628554,15.0701643 48.30009,14.3781184 50.4189466,14.3781184 C51.5467251,14.3781184 52.623241,14.5689294 53.6484942,14.9505514 C54.6737474,15.3321734 55.5566043,15.8647355 56.297065,16.5482376 L56.297065,16.5482376 L56.297065,12.7377132 C54.5541345,11.6896766 52.5378032,11.1656583 50.2480711,11.1656583 C47.1495281,11.1656583 44.5835471,12.1681281 42.5501283,14.1730677 C40.5167094,16.1780073 39.5,18.7582279 39.5,21.9137294 C39.5,25.1603645 40.4967739,27.7605206 42.4903218,29.7141975 C44.4838697,31.6678744 47.1039612,32.6447129 50.3505964,32.6447129 Z M67.1217859,32.6447129 C69.3431679,32.6447129 71.3481074,32.4168789 73.1366047,31.9612108 L73.1366047,31.9612108 L73.1366047,16.8045509 L69.7020065,16.8045509 L69.7020065,29.5689533 C68.7223201,29.7170454 67.8394632,29.7910915 67.0534357,29.7910915 C64.6042197,29.7910915 63.3796117,28.737359 63.3796117,26.6298941 L63.3796117,26.6298941 L63.3796117,16.8045509 L59.9450135,16.8045509 L59.9450135,26.8862074 C59.9450135,28.9594972 60.5544696,30.4375706 61.7733817,31.3204275 C62.9922938,32.2032844 64.7750952,32.6447129 67.1217859,32.6447129 Z M80.390027,32.3029618 L80.390027,20.3074994 C81.233013,19.97714 82.0987823,19.8119603 82.9873351,19.8119603 C84.1492887,19.8119603 85.1403668,19.97714 85.9605694,20.3074994 L85.9605694,20.3074994 L85.9605694,16.9412514 C84.9580996,16.6792422 83.9670215,16.5482376 82.9873351,16.5482376 C80.7887366,16.5482376 78.7667094,17.0665601 76.9212537,18.103205 L76.9212537,18.103205 L76.9212537,32.3029618 L80.390027,32.3029618 Z M93.5215677,32.6105378 C95.5378989,32.6105378 97.3150045,32.4054872 98.8528843,31.9953859 L98.8528843,31.9953859 L98.8528843,21.7428539 C98.8528843,19.8973981 98.3374098,18.5531772 97.3064607,17.7101913 C96.2755117,16.8672053 94.8543968,16.4457123 93.0431162,16.4457123 C91.1862687,16.4457123 89.5059926,16.8672053 88.0022879,17.7101913 L88.0022879,17.7101913 L88.0022879,20.7176007 C89.4946009,19.8746147 90.9869139,19.4531217 92.4792269,19.4531217 C93.3677797,19.4531217 94.0854569,19.6610203 94.6322586,20.0768174 C95.1790603,20.4926145 95.4524612,21.1049185 95.4524612,21.9137294 L95.4524612,21.9137294 L95.4524612,23.2123835 L93.7437058,23.2123835 C91.4653654,23.2123835 89.6996515,23.6053972 88.4465643,24.3914246 C87.1934771,25.1774521 86.5669334,26.3451016 86.5669334,27.8943731 C86.5669334,31.0384829 88.8851448,32.6105378 93.5215677,32.6105378 Z M93.5557428,30.0303172 C91.174877,30.0303172 89.9844441,29.2841607 89.9844441,27.7918478 C89.9844441,27.0286037 90.3375869,26.4590186 91.0438724,26.0830924 C91.750158,25.7071662 92.7298443,25.5192032 93.9829316,25.5192032 L93.9829316,25.5192032 L95.4524612,25.5192032 L95.4524612,29.8594417 C94.7461756,29.9733587 94.1139362,30.0303172 93.5557428,30.0303172 Z M110.156057,32.6447129 C112.38883,32.6447129 114.336811,32.4282706 116,31.9953859 L116,31.9953859 L116,8.5 L112.565402,8.5 L112.565402,17.0437767 C111.824941,16.6450671 110.799688,16.4457123 109.489642,16.4457123 C107.06321,16.4457123 105.075358,17.183325 103.526086,18.6585505 C101.976815,20.1337759 101.202179,22.1016925 101.202179,24.5623002 C101.202179,27.1254332 102.01099,29.1132852 103.628611,30.5258563 C105.246233,31.9384274 107.422048,32.6447129 110.156057,32.6447129 Z M110.224407,29.6714786 C108.515652,29.6714786 107.165735,29.2186585 106.174657,28.3130181 C105.183579,27.4073778 104.68804,26.1343551 104.68804,24.49395 C104.68804,22.9332867 105.152252,21.7086788 106.080675,20.820126 C107.009099,19.9315732 108.213772,19.4872968 109.694693,19.4872968 C110.902213,19.4872968 111.859116,19.6866516 112.565402,20.0853612 L112.565402,20.0853612 L112.565402,29.5347782 C111.8819,29.6259118 111.101568,29.6714786 110.224407,29.6714786 Z" id="Gurad" fill="#FFFFFF" fill-rule="nonzero"></path>
                <path d="M17.5,5.5 C24.8812857,5.5 30.8789757,11.4238772 30.9981914,18.7767528 L31,19 L31,33.627907 L19.3995,35.9365 L19.4,29.5309117 L19.4014423,29.3921135 C19.4800653,25.6120154 22.7632837,22.5602971 26.834524,22.47959 L27,22.4779513 L27,18.951471 L26.2556118,18.8120706 C20.6875955,17.769357 14.9791851,17.7307166 9.40003128,18.6965793 L8.90809531,18.7844094 L8,18.951471 L8,22.4779513 L8.15711795,22.4794285 C12.1763985,22.5550707 15.4296603,25.5263352 15.5935241,29.2370771 L15.5985577,29.3921135 L15.5995,29.4845 L15.5995,35.932 L4,33.627907 L4,19 L4.00180861,18.7767528 C4.12102429,11.4238772 10.1187143,5.5 17.5,5.5 Z" id="路径" fill="#4364E8"></path>
            </g>
        </g>
    </g>
</svg>