<?xml version="1.0" encoding="UTF-8"?>
<svg width="80px" height="80px" viewBox="0 0 80 80" version="1.1" xmlns="http://www.w3.org/2000/svg" xmlns:xlink="http://www.w3.org/1999/xlink">
    <title>切片</title>
    <g id="页面-1" stroke="none" stroke-width="1" fill="none" fill-rule="evenodd">
        <g id="05-弹窗" transform="translate(-522.000000, -148.000000)">
            <g id="编组-2" transform="translate(522.000000, 148.000000)">
                <path d="M9.75609756,54.1081081 C10.8337263,54.1081081 11.7073171,54.9793378 11.7073171,56.0540541 C11.7073171,57.1287703 10.8337263,58 9.75609756,58 C8.67846878,58 7.80487805,57.1287703 7.80487805,56.0540541 C7.80487805,54.9793378 8.67846878,54.1081081 9.75609756,54.1081081 Z M40,54.1081081 C41.0776288,54.1081081 41.9512195,54.9793378 41.9512195,56.0540541 C41.9512195,57.1287703 41.0776288,58 40,58 C38.9223712,58 38.0487805,57.1287703 38.0487805,56.0540541 C38.0487805,54.9793378 38.9223712,54.1081081 40,54.1081081 Z M70.2439024,54.1081081 C71.3215312,54.1081081 72.195122,54.9793378 72.195122,56.0540541 C72.195122,57.1287703 71.3215312,58 70.2439024,58 C69.1662737,58 68.2926829,57.1287703 68.2926829,56.0540541 C68.2926829,54.9793378 69.1662737,54.1081081 70.2439024,54.1081081 Z M17.5609756,46.3243243 C19.1774188,46.3243243 20.4878049,47.6311688 20.4878049,49.2432432 C20.4878049,50.8553176 19.1774188,52.1621622 17.5609756,52.1621622 C15.9445324,52.1621622 14.6341463,50.8553176 14.6341463,49.2432432 C14.6341463,47.6311688 15.9445324,46.3243243 17.5609756,46.3243243 Z M47.804878,46.3243243 C49.4213212,46.3243243 50.7317073,47.6311688 50.7317073,49.2432432 C50.7317073,50.8553176 49.4213212,52.1621622 47.804878,52.1621622 C46.1884349,52.1621622 44.8780488,50.8553176 44.8780488,49.2432432 C44.8780488,47.6311688 46.1884349,46.3243243 47.804878,46.3243243 Z M32.195122,46.3243243 C33.8115651,46.3243243 35.1219512,47.6311688 35.1219512,49.2432432 C35.1219512,50.8553176 33.8115651,52.1621622 32.195122,52.1621622 C30.5786788,52.1621622 29.2682927,50.8553176 29.2682927,49.2432432 C29.2682927,47.6311688 30.5786788,46.3243243 32.195122,46.3243243 Z M62.4390244,46.3243243 C64.0554676,46.3243243 65.3658537,47.6311688 65.3658537,49.2432432 C65.3658537,50.8553176 64.0554676,52.1621622 62.4390244,52.1621622 C60.8225812,52.1621622 59.5121951,50.8553176 59.5121951,49.2432432 C59.5121951,47.6311688 60.8225812,46.3243243 62.4390244,46.3243243 Z M1.95121951,47.2972973 C3.02884829,47.2972973 3.90243902,48.168527 3.90243902,49.2432432 C3.90243902,50.3179595 3.02884829,51.1891892 1.95121951,51.1891892 C0.873590732,51.1891892 0,50.3179595 0,49.2432432 C0,48.168527 0.873590732,47.2972973 1.95121951,47.2972973 Z M78.0487805,47.2972973 C79.1264093,47.2972973 80,48.168527 80,49.2432432 C80,50.3179595 79.1264093,51.1891892 78.0487805,51.1891892 C76.9711517,51.1891892 76.097561,50.3179595 76.097561,49.2432432 C76.097561,48.168527 76.9711517,47.2972973 78.0487805,47.2972973 Z M24.8780488,37.5675676 C27.3027135,37.5675676 29.2682927,39.5278343 29.2682927,41.9459459 C29.2682927,44.3640576 27.3027135,46.3243243 24.8780488,46.3243243 C22.453384,46.3243243 20.4878049,44.3640576 20.4878049,41.9459459 C20.4878049,39.5278343 22.453384,37.5675676 24.8780488,37.5675676 Z M55.1219512,37.5675676 C57.546616,37.5675676 59.5121951,39.5278343 59.5121951,41.9459459 C59.5121951,44.3640576 57.546616,46.3243243 55.1219512,46.3243243 C52.6972865,46.3243243 50.7317073,44.3640576 50.7317073,41.9459459 C50.7317073,39.5278343 52.6972865,37.5675676 55.1219512,37.5675676 Z M9.75609756,38.5405405 C11.3725407,38.5405405 12.6829268,39.8473851 12.6829268,41.4594595 C12.6829268,43.0715339 11.3725407,44.3783784 9.75609756,44.3783784 C8.13965439,44.3783784 6.82926829,43.0715339 6.82926829,41.4594595 C6.82926829,39.8473851 8.13965439,38.5405405 9.75609756,38.5405405 Z M40,38.5405405 C41.6164432,38.5405405 42.9268293,39.8473851 42.9268293,41.4594595 C42.9268293,43.0715339 41.6164432,44.3783784 40,44.3783784 C38.3835568,44.3783784 37.0731707,43.0715339 37.0731707,41.4594595 C37.0731707,39.8473851 38.3835568,38.5405405 40,38.5405405 Z M70.2439024,38.5405405 C71.8603456,38.5405405 73.1707317,39.8473851 73.1707317,41.4594595 C73.1707317,43.0715339 71.8603456,44.3783784 70.2439024,44.3783784 C68.6274593,44.3783784 67.3170732,43.0715339 67.3170732,41.4594595 C67.3170732,39.8473851 68.6274593,38.5405405 70.2439024,38.5405405 Z M32.6829268,29.7837838 C35.1075916,29.7837838 37.0731707,31.7440506 37.0731707,34.1621622 C37.0731707,36.5802738 35.1075916,38.5405405 32.6829268,38.5405405 C30.2582621,38.5405405 28.2926829,36.5802738 28.2926829,34.1621622 C28.2926829,31.7440506 30.2582621,29.7837838 32.6829268,29.7837838 Z M62.9268293,29.7837838 C65.351494,29.7837838 67.3170732,31.7440506 67.3170732,34.1621622 C67.3170732,36.5802738 65.351494,38.5405405 62.9268293,38.5405405 C60.5021645,38.5405405 58.5365854,36.5802738 58.5365854,34.1621622 C58.5365854,31.7440506 60.5021645,29.7837838 62.9268293,29.7837838 Z M17.0731707,29.7837838 C19.4978355,29.7837838 21.4634146,31.7440506 21.4634146,34.1621622 C21.4634146,36.5802738 19.4978355,38.5405405 17.0731707,38.5405405 C14.648506,38.5405405 12.6829268,36.5802738 12.6829268,34.1621622 C12.6829268,31.7440506 14.648506,29.7837838 17.0731707,29.7837838 Z M47.3170732,29.7837838 C49.7417379,29.7837838 51.7073171,31.7440506 51.7073171,34.1621622 C51.7073171,36.5802738 49.7417379,38.5405405 47.3170732,38.5405405 C44.8924084,38.5405405 42.9268293,36.5802738 42.9268293,34.1621622 C42.9268293,31.7440506 44.8924084,29.7837838 47.3170732,29.7837838 Z M24.8780488,22 C27.3027135,22 29.2682927,23.9602668 29.2682927,26.3783784 C29.2682927,28.79649 27.3027135,30.7567568 24.8780488,30.7567568 C22.453384,30.7567568 20.4878049,28.79649 20.4878049,26.3783784 C20.4878049,23.9602668 22.453384,22 24.8780488,22 Z M55.1219512,22 C57.546616,22 59.5121951,23.9602668 59.5121951,26.3783784 C59.5121951,28.79649 57.546616,30.7567568 55.1219512,30.7567568 C52.6972865,30.7567568 50.7317073,28.79649 50.7317073,26.3783784 C50.7317073,23.9602668 52.6972865,22 55.1219512,22 Z" id="形状结合" fill="#000000"></path>
                <rect id="矩形" x="0" y="0" width="80" height="80"></rect>
            </g>
        </g>
    </g>
</svg>