<?xml version="1.0" encoding="UTF-8"?>
<svg width="80px" height="80px" viewBox="0 0 80 80" version="1.1" xmlns="http://www.w3.org/2000/svg" xmlns:xlink="http://www.w3.org/1999/xlink">
    <title>切片</title>
    <g id="页面-1" stroke="none" stroke-width="1" fill="none" fill-rule="evenodd">
        <g id="05-弹窗" transform="translate(-208.000000, -148.000000)">
            <g id="编组-6" transform="translate(208.000000, 148.000000)">
                <rect id="矩形" x="0" y="0" width="80" height="80"></rect>
                <g id="icn-metamask.a357c69f" transform="translate(6.666667, 8.888889)" fill-rule="nonzero" stroke-linecap="round" stroke-linejoin="round" stroke-width="0.5">
                    <polygon id="路径" stroke="#E2761B" fill="#E2761B" points="63.162 0.398955556 37.3086667 19.6005556 42.0895556 8.27188889"></polygon>
                    <polygon id="路径" stroke="#E4761B" fill="#E4761B" points="3.4786 0.398955556 29.124 19.7824444 24.5768889 8.27188889"></polygon>
                    <polygon id="路径" stroke="#E4761B" fill="#E4761B" points="53.86 44.9082222 46.9744444 55.4573333 61.7071111 59.5106667 65.9422222 45.142"></polygon>
                    <polygon id="路径" stroke="#E4761B" fill="#E4761B" points="0.750324444 45.142 4.9596 59.5106667 19.6920889 55.4573333 12.8065333 44.9082222"></polygon>
                    <polygon id="路径" stroke="#E4761B" fill="#E4761B" points="18.8605333 27.0837778 14.7551778 33.2937778 29.3837778 33.9433333 28.864 18.2234667"></polygon>
                    <polygon id="路径" stroke="#E4761B" fill="#E4761B" points="47.7797778 27.0837778 37.6464444 18.0415778 37.3086667 33.9433333 51.9111111 33.2937778"></polygon>
                    <polygon id="路径" stroke="#E4761B" fill="#E4761B" points="19.6921111 55.4573333 28.4744444 51.1702222 20.8873333 45.246"></polygon>
                    <polygon id="路径" stroke="#E4761B" fill="#E4761B" points="38.1662222 51.1702222 46.9744444 55.4573333 45.7533333 45.246"></polygon>
                    <polygon id="路径" stroke="#D7C1B3" fill="#D7C1B3" points="46.9744444 55.4573333 38.1662222 51.1702222 38.8677778 56.9124444 38.7897778 59.3288889"></polygon>
                    <polygon id="路径" stroke="#D7C1B3" fill="#D7C1B3" points="19.6921111 55.4573333 27.8768889 59.3288889 27.8248889 56.9124444 28.4744444 51.1702222"></polygon>
                    <polygon id="路径" stroke="#233447" fill="#233447" points="28.0066667 41.4524444 20.6794 39.2957778 25.85 36.9313333"></polygon>
                    <polygon id="路径" stroke="#233447" fill="#233447" points="38.6337778 41.4524444 40.7904444 36.9313333 45.9871111 39.2957778"></polygon>
                    <polygon id="路径" stroke="#CD6116" fill="#CD6116" points="19.6920889 55.4573333 20.9392667 44.9082222 12.8065333 45.142"></polygon>
                    <polygon id="路径" stroke="#CD6116" fill="#CD6116" points="45.7273333 44.9082222 46.9744444 55.4573333 53.86 45.142"></polygon>
                    <polygon id="路径" stroke="#CD6116" fill="#CD6116" points="51.9111111 33.2935556 37.3086667 33.9433333 38.6597778 41.4524444 40.8164444 36.9313333 46.0128889 39.2957778"></polygon>
                    <polygon id="路径" stroke="#CD6116" fill="#CD6116" points="20.6777333 39.2957778 25.8744444 36.9313333 28.0048889 41.4524444 29.382 33.9433333 14.7535556 33.2935556"></polygon>
                    <polygon id="路径" stroke="#E4751F" fill="#E4751F" points="14.7551778 33.2935556 20.8872222 45.246 20.6793556 39.2957778"></polygon>
                    <polygon id="路径" stroke="#E4751F" fill="#E4751F" points="46.0131111 39.2957778 45.7533333 45.246 51.9113333 33.2935556"></polygon>
                    <polygon id="路径" stroke="#E4751F" fill="#E4751F" points="29.3837778 33.9433333 28.0066667 41.4524444 29.7215556 50.3126667 30.1113333 38.6462222"></polygon>
                    <polygon id="路径" stroke="#E4751F" fill="#E4751F" points="37.3086667 33.9433333 36.6071111 38.6202222 36.9188889 50.3126667 38.6597778 41.4524444"></polygon>
                    <polygon id="路径" stroke="#F6851B" fill="#F6851B" points="38.6597778 41.4524444 36.9188889 50.3126667 38.1662222 51.1702222 45.7533333 45.246 46.0131111 39.2957778"></polygon>
                    <polygon id="路径" stroke="#F6851B" fill="#F6851B" points="20.6794 39.2957778 20.8872667 45.246 28.4744444 51.1702222 29.7215556 50.3126667 28.0066667 41.4524444"></polygon>
                    <polygon id="路径" stroke="#C0AD9E" fill="#C0AD9E" points="38.7897778 59.3288889 38.8677778 56.9124444 38.2182222 56.3408889 28.4224444 56.3408889 27.8248889 56.9124444 27.8768889 59.3288889 19.6921111 55.4573333 22.5502222 57.7957778 28.3444444 61.8233333 38.296 61.8233333 44.1162222 57.7957778 46.9744444 55.4573333"></polygon>
                    <polygon id="路径" stroke="#161616" fill="#161616" points="38.166 51.1702222 36.9188889 50.3126667 29.7215556 50.3126667 28.4742222 51.1702222 27.8246667 56.9124444 28.4222222 56.3408889 38.218 56.3408889 38.8675556 56.9124444"></polygon>
                    <polygon id="路径" stroke="#763D16" fill="#763D16" points="64.2533333 20.8477778 66.462 10.2466 63.162 0.398955556 38.1662222 18.9509778 47.78 27.0837778 61.3693333 31.0591111 64.3833333 27.5513333 63.0842222 26.616 65.1628889 24.7193333 63.5517778 23.472 65.6304444 21.8871111"></polygon>
                    <polygon id="路径" stroke="#763D16" fill="#763D16" points="0.204671333 10.2466 2.41324444 20.8477778 1.01015111 21.8871111 3.0888 23.472 1.50383111 24.7193333 3.58248889 26.616 2.28333333 27.5513333 5.2714 31.0591111 18.8606222 27.0837778 28.4744444 18.9509778 3.47855556 0.398955556"></polygon>
                    <polygon id="路径" stroke="#F6851B" fill="#F6851B" points="61.3693333 31.0591111 47.78 27.0837778 51.9113333 33.2935556 45.7533333 45.246 53.86 45.142 65.9422222 45.142"></polygon>
                    <polygon id="路径" stroke="#F6851B" fill="#F6851B" points="18.8606222 27.0837778 5.2714 31.0591111 0.750324444 45.142 12.8065333 45.142 20.8873111 45.246 14.7552889 33.2935556"></polygon>
                    <polygon id="路径" stroke="#F6851B" fill="#F6851B" points="37.3086667 33.9433333 38.1662222 18.951 42.1155556 8.27188889 24.5768889 8.27188889 28.4744444 18.951 29.3837778 33.9433333 29.6955556 38.6722222 29.7215556 50.3126667 36.9188889 50.3126667 36.9708889 38.6722222"></polygon>
                </g>
            </g>
        </g>
    </g>
</svg>