<?xml version="1.0" encoding="UTF-8"?>
<svg width="46px" height="46px" viewBox="0 0 46 46" version="1.1" xmlns="http://www.w3.org/2000/svg" xmlns:xlink="http://www.w3.org/1999/xlink">
    <title>切片</title>
    <g id="页面-1" stroke="none" stroke-width="1" fill="none" fill-rule="evenodd">
        <g id="03保险-我的结算" transform="translate(-837.000000, -531.000000)">
            <g id="编组-10" transform="translate(531.000000, 530.000000)">
                <g id="编组-8" transform="translate(306.000000, 0.000000)">
                    <g id="编组-8" transform="translate(0.000000, 1.000000)">
                        <path d="M10.2585999,1.4038338 C14.1422811,0.4679446 18.3894145,0 23,0 C27.5368711,0 31.721819,0.453101147 35.5548437,1.35930344 L35.5548437,1.35930319 C39.9565439,2.39995156 43.3991702,5.82720146 44.459512,10.2241992 C45.486504,14.4829029 46,18.956918 46,23.6462445 C46,28.0309755 45.5510458,32.0668981 44.6531374,35.7540122 L44.6531397,35.7540128 C43.5917132,40.1125874 40.1878538,43.5151826 35.8288853,44.5749899 C31.9215248,45.5249966 27.6452297,46 23,46 C18.389413,46 14.1422784,45.5320551 10.2585962,44.5961653 L10.2585965,44.5961637 C5.87886119,43.540735 2.4592621,40.1211356 1.4038338,35.7414001 C0.4679446,31.8577189 0,27.6105855 0,23 C0,18.389413 0.467944897,14.1422784 1.40383469,10.2585962 L1.40383634,10.2585965 C2.45926502,5.87886119 5.8788644,2.4592621 10.2585999,1.4038338 Z" id="矩形备份-4" fill="#617FF5"></path>
                        <g id="编组" transform="translate(10.000000, 14.000000)" fill="#FFFFFF">
                            <g id="编组-7" transform="translate(6.000000, 0.000000)">
                                <path d="M4.10278637,0 L8.89721363,0 C9.55329109,3.23569737e-16 10.1332421,0.426374715 10.3289336,1.05258751 L11.8914336,6.05258751 C12.1385327,6.84330461 11.6978432,7.68462087 10.9071261,7.93171997 C10.7623004,7.97697799 10.6114462,8 10.4597136,8 L2.54028637,8 C1.71185925,8 1.04028637,7.32842712 1.04028637,6.5 C1.04028637,6.34826746 1.06330838,6.19741318 1.1085664,6.05258751 L2.6710664,1.05258751 C2.8667579,0.426374715 3.44670891,1.20519473e-16 4.10278637,0 Z" id="矩形"></path>
                            </g>
                            <g id="编组-7备份" opacity="0.7" transform="translate(0.000000, 10.000000)">
                                <path d="M4.10278637,0 L8.89721363,0 C9.55329109,3.23569737e-16 10.1332421,0.426374715 10.3289336,1.05258751 L11.8914336,6.05258751 C12.1385327,6.84330461 11.6978432,7.68462087 10.9071261,7.93171997 C10.7623004,7.97697799 10.6114462,8 10.4597136,8 L2.54028637,8 C1.71185925,8 1.04028637,7.32842712 1.04028637,6.5 C1.04028637,6.34826746 1.06330838,6.19741318 1.1085664,6.05258751 L2.6710664,1.05258751 C2.8667579,0.426374715 3.44670891,1.20519473e-16 4.10278637,0 Z" id="矩形"></path>
                            </g>
                            <g id="编组-7备份-2" opacity="0.7" transform="translate(13.000000, 10.000000)">
                                <path d="M4.10278637,0 L8.89721363,0 C9.55329109,3.23569737e-16 10.1332421,0.426374715 10.3289336,1.05258751 L11.8914336,6.05258751 C12.1385327,6.84330461 11.6978432,7.68462087 10.9071261,7.93171997 C10.7623004,7.97697799 10.6114462,8 10.4597136,8 L2.54028637,8 C1.71185925,8 1.04028637,7.32842712 1.04028637,6.5 C1.04028637,6.34826746 1.06330838,6.19741318 1.1085664,6.05258751 L2.6710664,1.05258751 C2.8667579,0.426374715 3.44670891,1.20519473e-16 4.10278637,0 Z" id="矩形"></path>
                            </g>
                        </g>
                    </g>
                </g>
            </g>
        </g>
    </g>
</svg>