<?xml version="1.0" encoding="UTF-8"?>
<svg width="46px" height="46px" viewBox="0 0 46 46" version="1.1" xmlns="http://www.w3.org/2000/svg" xmlns:xlink="http://www.w3.org/1999/xlink">
    <title>切片</title>
    <defs>
        <linearGradient x1="0%" y1="23.8981956%" x2="90.8234459%" y2="30.0528327%" id="linearGradient-1">
            <stop stop-color="#2167EC" offset="0%"></stop>
            <stop stop-color="#1457D8" offset="100%"></stop>
        </linearGradient>
    </defs>
    <g id="页面-1" stroke="none" stroke-width="1" fill="none" fill-rule="evenodd">
        <g id="01保险-我的保单" transform="translate(-952.000000, -531.000000)">
            <g id="编组-10" transform="translate(480.000000, 530.000000)">
                <g id="编组-9" transform="translate(472.000000, 0.000000)">
                    <g id="icon2备份" transform="translate(0.000000, 1.000000)">
                        <g id="编组-7" fill="#617FF5">
                            <path d="M10.2585999,1.4038338 C14.1422811,0.4679446 18.3894145,0 23,0 C27.5368711,0 31.721819,0.453101147 35.5548437,1.35930344 L35.5548437,1.35930319 C39.9565439,2.39995156 43.3991702,5.82720146 44.459512,10.2241992 C45.486504,14.4829029 46,18.956918 46,23.6462445 C46,28.0309755 45.5510458,32.0668981 44.6531374,35.7540122 L44.6531397,35.7540128 C43.5917132,40.1125874 40.1878538,43.5151826 35.8288853,44.5749899 C31.9215248,45.5249966 27.6452297,46 23,46 C18.389413,46 14.1422784,45.5320551 10.2585962,44.5961653 L10.2585965,44.5961637 C5.87886119,43.540735 2.4592621,40.1211356 1.4038338,35.7414001 C0.4679446,31.8577189 0,27.6105855 0,23 C0,18.389413 0.467944897,14.1422784 1.40383469,10.2585962 L1.40383634,10.2585965 C2.45926502,5.87886119 5.8788644,2.4592621 10.2585999,1.4038338 Z" id="矩形"></path>
                        </g>
                        <g id="编组-8" transform="translate(9.000000, 9.000000)">
                            <g id="编组-11" fill="url(#linearGradient-1)">
                                <circle id="椭圆形" cx="14" cy="14" r="14"></circle>
                            </g>
                            <path d="M14,6.3 C17.8273333,6.3 20.9372467,9.29731273 20.9990622,13.0176578 L21,13.1306146 L21,20.5319179 L14.9849259,21.7 L14.9851852,18.4589552 L14.985933,18.3887273 C15.0267005,16.4761056 16.7291101,14.9320232 18.8401236,14.8911878 L18.9259259,14.8903586 L18.9259259,13.1060603 L18.5399469,13.0355276 C15.6528273,12.5079443 12.6929108,12.4883934 9.80001623,12.9770923 L9.5449383,13.0215319 L9.07407407,13.1060603 L9.07407407,14.8903586 L9.15554261,14.891106 C11.239614,14.9293788 12.9264905,16.4327538 13.0114569,18.3102833 L13.014067,18.3887273 L13.0145556,18.4354722 L13.0145556,21.6977231 L7,20.5319179 L7,13.1306146 L7.0009378,13.0176578 C7.06275334,9.29731273 10.1726667,6.3 14,6.3 Z" id="路径" fill="#FFFFFF" fill-rule="nonzero"></path>
                        </g>
                    </g>
                </g>
            </g>
        </g>
    </g>
</svg>