<?xml version="1.0" encoding="UTF-8"?>
<svg width="46px" height="46px" viewBox="0 0 46 46" version="1.1" xmlns="http://www.w3.org/2000/svg" xmlns:xlink="http://www.w3.org/1999/xlink">
    <title>切片</title>
    <g id="页面-1" stroke="none" stroke-width="1" fill="none" fill-rule="evenodd">
        <g id="02保险-我发布的保险" transform="translate(-531.000000, -581.000000)">
            <g id="编组-10" transform="translate(531.000000, 580.000000)">
                <g id="icon1" transform="translate(0.000000, 1.000000)">
                    <g id="编组-7" fill="#617FF5">
                        <path d="M10.2585999,1.4038338 C14.1422811,0.4679446 18.3894145,0 23,0 C27.5368711,0 31.721819,0.453101147 35.5548437,1.35930344 L35.5548437,1.35930319 C39.9565439,2.39995156 43.3991702,5.82720146 44.459512,10.2241992 C45.486504,14.4829029 46,18.956918 46,23.6462445 C46,28.0309755 45.5510458,32.0668981 44.6531374,35.7540122 L44.6531397,35.7540128 C43.5917132,40.1125874 40.1878538,43.5151826 35.8288853,44.5749899 C31.9215248,45.5249966 27.6452297,46 23,46 C18.389413,46 14.1422784,45.5320551 10.2585962,44.5961653 L10.2585965,44.5961637 C5.87886119,43.540735 2.4592621,40.1211356 1.4038338,35.7414001 C0.4679446,31.8577189 0,27.6105855 0,23 C0,18.389413 0.467944897,14.1422784 1.40383469,10.2585962 L1.40383634,10.2585965 C2.45926502,5.87886119 5.8788644,2.4592621 10.2585999,1.4038338 Z" id="矩形"></path>
                    </g>
                    <g id="price-tag-2-fill" transform="translate(12.000000, 11.000000)">
                        <polygon id="路径" points="0 0 24 0 24 24 0 24"></polygon>
                        <path d="M3,7 L11.445,1.37 C11.7810369,1.14580046 12.2189631,1.14580046 12.555,1.37 L21,7 L21,21 C21,21.5522847 20.5522847,22 20,22 L4,22 C3.44771525,22 3,21.5522847 3,21 L3,7 Z M12,11 C13.1045695,11 14,10.1045695 14,9 C14,7.8954305 13.1045695,7 12,7 C10.8954305,7 10,7.8954305 10,9 C10,10.1045695 10.8954305,11 12,11 Z M8,16 L8,18 L16,18 L16,16 L8,16 Z M8,13 L8,15 L16,15 L16,13 L8,13 Z" id="形状" fill="#FFFFFF" fill-rule="nonzero"></path>
                    </g>
                </g>
            </g>
        </g>
    </g>
</svg>