<?xml version="1.0" encoding="UTF-8"?>
<svg width="46px" height="46px" viewBox="0 0 46 46" version="1.1" xmlns="http://www.w3.org/2000/svg" xmlns:xlink="http://www.w3.org/1999/xlink">
    <title>切片</title>
    <g id="页面-1" stroke="none" stroke-width="1" fill="none" fill-rule="evenodd">
        <g id="03保险-我的结算" transform="translate(-1223.000000, -531.000000)">
            <g id="编组-10" transform="translate(531.000000, 530.000000)">
                <g id="编组-9" transform="translate(692.000000, 0.000000)">
                    <g id="icon2备份" transform="translate(0.000000, 1.000000)">
                        <g id="编组-7" fill="#617FF5">
                            <path d="M10.2585999,1.4038338 C14.1422811,0.4679446 18.3894145,0 23,0 C27.5368711,0 31.721819,0.453101147 35.5548437,1.35930344 L35.5548437,1.35930319 C39.9565439,2.39995156 43.3991702,5.82720146 44.459512,10.2241992 C45.486504,14.4829029 46,18.956918 46,23.6462445 C46,28.0309755 45.5510458,32.0668981 44.6531374,35.7540122 L44.6531397,35.7540128 C43.5917132,40.1125874 40.1878538,43.5151826 35.8288853,44.5749899 C31.9215248,45.5249966 27.6452297,46 23,46 C18.389413,46 14.1422784,45.5320551 10.2585962,44.5961653 L10.2585965,44.5961637 C5.87886119,43.540735 2.4592621,40.1211356 1.4038338,35.7414001 C0.4679446,31.8577189 0,27.6105855 0,23 C0,18.389413 0.467944897,14.1422784 1.40383469,10.2585962 L1.40383634,10.2585965 C2.45926502,5.87886119 5.8788644,2.4592621 10.2585999,1.4038338 Z" id="矩形"></path>
                        </g>
                        <g id="pie-chart-2-fill" transform="translate(11.000000, 11.000000)">
                            <polygon id="路径" points="0 0 24 0 24 24 0 24"></polygon>
                            <path d="M11,2.05 L11,13 L21.95,13 C21.449,18.053 17.185,22 12,22 C6.477,22 2,17.523 2,12 C2,6.815 5.947,2.551 11,2.05 Z" id="形状" fill-opacity="0.7" fill="#FFFFFF" fill-rule="nonzero"></path>
                            <path d="M13,0.543 C18.553,1.02 22.979,5.447 23.457,11 L13,11 L13,0.543 Z" id="路径" fill="#FFFFFF" fill-rule="nonzero"></path>
                        </g>
                    </g>
                </g>
            </g>
        </g>
    </g>
</svg>