<?xml version="1.0" encoding="UTF-8"?>
<svg width="46px" height="46px" viewBox="0 0 46 46" version="1.1" xmlns="http://www.w3.org/2000/svg" xmlns:xlink="http://www.w3.org/1999/xlink">
    <title>切片</title>
    <g id="页面-1" stroke="none" stroke-width="1" fill="none" fill-rule="evenodd">
        <g id="03保险-我的结算" transform="translate(-531.000000, -531.000000)">
            <g id="编组-10" transform="translate(531.000000, 530.000000)">
                <g id="编组-7" transform="translate(0.000000, 1.000000)">
                    <path d="M10.2585999,1.4038338 C14.1422811,0.4679446 18.3894145,0 23,0 C27.5368711,0 31.721819,0.453101147 35.5548437,1.35930344 L35.5548437,1.35930319 C39.9565439,2.39995156 43.3991702,5.82720146 44.459512,10.2241992 C45.486504,14.4829029 46,18.956918 46,23.6462445 C46,28.0309755 45.5510458,32.0668981 44.6531374,35.7540122 L44.6531397,35.7540128 C43.5917132,40.1125874 40.1878538,43.5151826 35.8288853,44.5749899 C31.9215248,45.5249966 27.6452297,46 23,46 C18.389413,46 14.1422784,45.5320551 10.2585962,44.5961653 L10.2585965,44.5961637 C5.87886119,43.540735 2.4592621,40.1211356 1.4038338,35.7414001 C0.4679446,31.8577189 0,27.6105855 0,23 C0,18.389413 0.467944897,14.1422784 1.40383469,10.2585962 L1.40383634,10.2585965 C2.45926502,5.87886119 5.8788644,2.4592621 10.2585999,1.4038338 Z" id="矩形" fill="#617FF5"></path>
                    <g id="hand-coin-fill" transform="translate(11.000000, 11.000000)">
                        <polygon id="路径" points="0 0 24 0 24 24 0 24"></polygon>
                        <path d="M9.33,11.5 L11.5,11.5 C13.9852814,11.5 16,13.5147186 16,16 L8.999,16 L9,17 L17,17 L17,16 C16.9968469,14.9359631 16.6894236,13.8950264 16.114,13 L19,13 C20.929307,12.9994678 22.6867839,14.1089821 23.516,15.851 C21.151,18.972 17.322,21 13,21 C10.239,21 7.9,20.41 6,19.375 L6,10.071 C7.21661291,10.2452765 8.36547357,10.7382861 9.33,11.5 Z M5,19 C5,19.5522847 4.55228475,20 4,20 L2,20 C1.44771525,20 1,19.5522847 1,19 L1,10 C1,9.44771525 1.44771525,9 2,9 L4,9 C4.55228475,9 5,9.44771525 5,10 L5,19 Z" id="形状" fill-opacity="0.7" fill="#FFFFFF" fill-rule="nonzero"></path>
                        <path d="M18,5 C19.6568542,5 21,6.34314575 21,8 C21,9.65685425 19.6568542,11 18,11 C16.3431458,11 15,9.65685425 15,8 C15,6.34314575 16.3431458,5 18,5 Z" id="路径" fill="#FFFFFF" fill-rule="nonzero"></path>
                        <path d="M11,2 C12.6568542,2 14,3.34314575 14,5 C14,6.65685425 12.6568542,8 11,8 C9.34314575,8 8,6.65685425 8,5 C8,3.34314575 9.34314575,2 11,2 Z" id="路径" fill="#FFFFFF" fill-rule="nonzero"></path>
                    </g>
                </g>
            </g>
        </g>
    </g>
</svg>