<?xml version="1.0" encoding="UTF-8"?>
<svg width="46px" height="46px" viewBox="0 0 46 46" version="1.1" xmlns="http://www.w3.org/2000/svg" xmlns:xlink="http://www.w3.org/1999/xlink">
    <title>切片</title>
    <defs>
        <linearGradient x1="79.8177338%" y1="87.0384598%" x2="34.1544342%" y2="0%" id="linearGradient-1">
            <stop stop-color="#FFD59C" offset="0%"></stop>
            <stop stop-color="#FFE1BA" offset="100%"></stop>
        </linearGradient>
        <path d="M8.13797595,0.0491424138 L8.39782424,0.0491424138 C13.4685687,0.0491424138 16.0633488,5.16888218 16.0633488,8.55326822 C16.4247127,8.77008661 16.5418901,9.23879602 16.3250717,9.60015999 C16.1871714,9.82999386 15.9387944,9.97062252 15.6707643,9.97062252 L0.807043397,9.97062252 C0.393840309,9.97062252 0.0588730224,9.63565524 0.0588730224,9.22245215 C0.0588730224,8.96268162 0.193410097,8.72334852 0.411067977,8.58764611 L0.472451434,8.55326822 C0.472451434,5.16888218 3.01152839,0.0491424138 8.13797595,0.0491424138 Z" id="path-2"></path>
        <circle id="path-4" cx="2.30338402" cy="2.30338402" r="2.30338402"></circle>
        <filter x="-21.7%" y="-21.7%" width="143.4%" height="143.4%" filterUnits="objectBoundingBox" id="filter-5">
            <feOffset dx="-2" dy="0" in="SourceAlpha" result="shadowOffsetInner1"></feOffset>
            <feComposite in="shadowOffsetInner1" in2="SourceAlpha" operator="arithmetic" k2="-1" k3="1" result="shadowInnerInner1"></feComposite>
            <feColorMatrix values="0 0 0 0 0.909803922   0 0 0 0 0.905882353   0 0 0 0 0.91372549  0 0 0 1 0" type="matrix" in="shadowInnerInner1"></feColorMatrix>
        </filter>
    </defs>
    <g id="页面-1" stroke="none" stroke-width="1" fill="none" fill-rule="evenodd">
        <g id="01保险-我的保单" transform="translate(-1213.000000, -531.000000)">
            <g id="编组-10" transform="translate(480.000000, 530.000000)">
                <g id="编组-9" transform="translate(472.000000, 0.000000)">
                    <g id="icon2备份-2" transform="translate(261.000000, 1.000000)">
                        <g id="编组-7" fill="#617FF5">
                            <path d="M10.2585999,1.4038338 C14.1422811,0.4679446 18.3894145,0 23,0 C27.5368711,0 31.721819,0.453101147 35.5548437,1.35930344 L35.5548437,1.35930319 C39.9565439,2.39995156 43.3991702,5.82720146 44.459512,10.2241992 C45.486504,14.4829029 46,18.956918 46,23.6462445 C46,28.0309755 45.5510458,32.0668981 44.6531374,35.7540122 L44.6531397,35.7540128 C43.5917132,40.1125874 40.1878538,43.5151826 35.8288853,44.5749899 C31.9215248,45.5249966 27.6452297,46 23,46 C18.389413,46 14.1422784,45.5320551 10.2585962,44.5961653 L10.2585965,44.5961637 C5.87886119,43.540735 2.4592621,40.1211356 1.4038338,35.7414001 C0.4679446,31.8577189 0,27.6105855 0,23 C0,18.389413 0.467944897,14.1422784 1.40383469,10.2585962 L1.40383634,10.2585965 C2.45926502,5.87886119 5.8788644,2.4592621 10.2585999,1.4038338 Z" id="矩形"></path>
                        </g>
                        <g id="编组-8备份-2" transform="translate(9.000000, 9.000000)">
                            <g id="编组-11" fill="url(#linearGradient-1)">
                                <circle id="椭圆形" cx="14" cy="14" r="14"></circle>
                            </g>
                            <g id="编组-4" transform="translate(5.600000, 8.400000)">
                                <g id="头" transform="translate(0.000000, 0.895760)">
                                    <mask id="mask-3" fill="white">
                                        <use xlink:href="#path-2"></use>
                                    </mask>
                                    <use id="帽体" fill="#FF8200" xlink:href="#path-2"></use>
                                    <path d="M5.22100939,-0.0159957224 L8.39024596,-0.0159957224 C11.8275675,-0.0159957224 14.5410426,4.7958884 14.5410426,8.72407189 L15.4535274,9.248613 C15.6373414,9.35427833 15.7006934,9.58894771 15.5950281,9.77276172 C15.5265462,9.89189186 15.3996143,9.96533505 15.2622034,9.96533505 L-1.63345544,9.96533505 C-1.84547608,9.96533505 -2.01735278,9.79345836 -2.01735278,9.58143771 C-2.01735278,9.43213443 -1.93078893,9.2963738 -1.7954248,9.23338155 L-0.700968628,8.72407189 C-0.700968628,4.7958884 1.78368782,-0.0159957224 5.22100939,-0.0159957224 Z" id="帽子阴影" fill="#FF9600" mask="url(#mask-3)"></path>
                                    <polygon id="矩形" fill="#17173A" fill-rule="nonzero" mask="url(#mask-3)" points="0.286767756 5.82244295 15.9748613 5.82244295 15.9748613 7.39002374 0.286767756 7.39002374"></polygon>
                                </g>
                                <g id="灯" transform="translate(5.837283, 5.102635)">
                                    <circle fill-opacity="0.119427448" fill="#000000" cx="2.4313498" cy="2.30338402" r="2.30338402"></circle>
                                    <g>
                                        <use fill="#FFFFFF" fill-rule="evenodd" xlink:href="#path-4"></use>
                                        <use fill="black" fill-opacity="1" filter="url(#filter-5)" xlink:href="#path-4"></use>
                                        <circle stroke="#17173A" stroke-width="0.708677151" stroke-linejoin="square" cx="2.30338402" cy="2.30338402" r="1.94904545"></circle>
                                    </g>
                                </g>
                                <g id="编组" transform="translate(6.781031, 0.000000)" fill-rule="nonzero">
                                    <path d="M0.54987608,2.24935592 C0.179276939,1.50123173 0.0623787326,1.27811696 0.136384902,0.980407581 C0.251507188,0.517835562 0.772732822,0.0945396001 1.37043671,0.101885177 C1.89193228,0.108305438 2.3685752,0.442159042 2.57193944,0.947879205 C2.60351463,1.04993509 2.53452913,1.40179122 2.12786996,2.27066722 C1.87449559,2.82312274 1.59806188,3.47028746 1.3617418,3.90877289 C1.09371688,3.35436206 0.823091987,2.80121696 0.54987608,2.24935592 Z" id="路径" fill="#FF8A00"></path>
                                    <path d="M0.432156473,2.24805071 C0.0636167827,1.50392719 -0.0526318112,1.28200555 0.0209630996,0.985888193 C0.135445642,0.525789821 0.653774782,0.104757474 1.24815718,0.112063769 C1.76675476,0.118449697 2.24074893,0.450517988 2.44298306,0.953533765 C2.47438278,1.0550439 2.40578065,1.40501844 2.00138131,2.26924804 C1.74941496,2.81874926 1.47451742,3.4624532 1.23951059,3.89859379 C0.97297511,3.34714773 0.703854097,2.79696062 0.432156473,2.24805071 Z" id="路径" fill="#FFAA30"></path>
                                </g>
                                <g id="编组-2" transform="translate(2.071049, 2.239401)" fill-rule="nonzero">
                                    <path d="M2.60182541,1.00453231 C2.30337879,0.725408728 1.97907081,0.477205699 1.63357416,0.263499378 C1.59037252,0.252166769 1.00262233,0.10893595 0.571604631,0.52122575 C0.212913579,0.864280824 0.117251834,1.44413732 0.352897158,1.9389157 C0.66939879,1.86425135 1.06054843,1.80509624 1.50855797,1.81005252 C2.48168139,1.82068902 3.24433007,2.12803385 3.69501187,2.35777675 C3.4613505,1.9700595 3.11118911,1.48117017 2.60182541,1.00453231 Z" id="路径" fill="#FF8A00" transform="translate(1.959476, 1.294061) rotate(7.000000) translate(-1.959476, -1.294061) "></path>
                                    <path d="M3.59028198,2.23940113 C3.36415799,1.87209337 3.02529823,1.40893169 2.53236045,0.957373599 C2.24354321,0.692937807 1.92969406,0.457800323 1.59533664,0.255350278 C1.5535284,0.244607218 0.984736632,0.108927349 0.567626222,0.499509504 C0.220511324,0.824503867 0.127934037,1.3738386 0.355975343,1.84258021 C0.662267291,1.77184274 1.04079163,1.71580135 1.47434572,1.72050732 C2.41610958,1.73056465 3.15414483,2.02175669 3.59028198,2.23940113 Z" id="路径" fill="#FFAA30" transform="translate(1.910731, 1.231671) rotate(7.000000) translate(-1.910731, -1.231671) "></path>
                                </g>
                                <g id="编组-2" transform="translate(12.171055, 3.739401) scale(-1, 1) translate(-12.171055, -3.739401) translate(10.171055, 2.239401)" fill-rule="nonzero">
                                    <path d="M2.60182541,1.11650236 C2.30337879,0.837378785 1.97907081,0.589175756 1.63357416,0.375469435 C1.59037252,0.364136825 1.00262233,0.220906007 0.571604631,0.633195807 C0.212913579,0.97625088 0.117251834,1.55610737 0.352897158,2.05088576 C0.66939879,1.97622141 1.06054843,1.9170663 1.50855797,1.92202257 C2.48168139,1.93265908 3.24433007,2.2400039 3.69501187,2.4697468 C3.4613505,2.08202955 3.11118911,1.59314022 2.60182541,1.11650236 Z" id="路径" fill="#FF8A00" transform="translate(1.959476, 1.406031) rotate(7.000000) translate(-1.959476, -1.406031) "></path>
                                    <path d="M3.59028198,2.23940113 C3.36415799,1.87209337 3.02529823,1.40893169 2.53236045,0.957373599 C2.24354321,0.692937807 1.92969406,0.457800323 1.59533664,0.255350278 C1.5535284,0.244607218 0.984736632,0.108927349 0.567626222,0.499509504 C0.220511324,0.824503867 0.127934037,1.3738386 0.355975343,1.84258021 C0.662267291,1.77184274 1.04079163,1.71580135 1.47434572,1.72050732 C2.41610958,1.73056465 3.15414483,2.02175669 3.59028198,2.23940113 Z" id="路径" fill="#FFAA30" transform="translate(1.910731, 1.231671) rotate(7.000000) translate(-1.910731, -1.231671) "></path>
                                </g>
                            </g>
                        </g>
                    </g>
                </g>
            </g>
        </g>
    </g>
</svg>