<?xml version="1.0" encoding="UTF-8"?>
<svg width="105px" height="32px" viewBox="0 0 105 32" version="1.1" xmlns="http://www.w3.org/2000/svg" xmlns:xlink="http://www.w3.org/1999/xlink">
    <title>切片</title>
    <g id="页面-1" stroke="none" stroke-width="1" fill="none" fill-rule="evenodd">
        <g id="02保险-我发布的保险" transform="translate(-458.000000, -693.000000)">
            <g id="logo备份-2" transform="translate(458.000000, 693.000000)">
                <g id="logo-">
                    <polygon id="矩形" points="3.52811215e-14 0 105 0 105 32 3.52811215e-14 32"></polygon>
                </g>
                <g id="编组-5">
                    <rect id="矩形" x="0" y="0" width="105" height="32"></rect>
                    <path d="M43.2334289,25.7157703 C44.2755108,25.7157703 45.2654886,25.6086883 46.2033622,25.3945243 C47.1412359,25.1803603 47.9318589,24.877341 48.5752311,24.4854665 L48.5752311,24.4854665 L48.5752311,17.8008156 L45.7344254,17.8008156 L45.7344254,22.8450614 C45.1091763,23.1002355 44.293634,23.2278226 43.2877984,23.2278226 C41.6295291,23.2278226 40.2544341,22.6650725 39.1625135,21.5395723 C38.070593,20.4140721 37.5246327,18.9445425 37.5246327,17.1309835 C37.5246327,15.3265379 38.0637968,13.8706783 39.142125,12.7634049 C40.2204532,11.6561314 41.6023443,11.1024947 43.2877984,11.1024947 C44.184895,11.1024947 45.0412144,11.2551435 45.8567567,11.5604411 C46.6722991,11.8657387 47.3745716,12.2917884 47.9635744,12.8385901 L47.9635744,12.8385901 L47.9635744,9.79017059 C46.5771525,8.9517413 44.9732526,8.53252666 43.1518747,8.53252666 C40.6871246,8.53252666 38.6460034,9.3345025 37.0285111,10.9384542 C35.4110189,12.5424059 34.6022727,14.6065823 34.6022727,17.1309835 C34.6022727,19.7282916 35.3951611,21.8084165 36.9809378,23.371358 C38.5667146,24.9342996 40.6508783,25.7157703 43.2334289,25.7157703 Z M56.5741479,25.7157703 C58.3411562,25.7157703 59.9359946,25.5335031 61.3586628,25.1689686 L61.3586628,25.1689686 L61.3586628,13.0436407 L58.6265961,13.0436407 L58.6265961,23.2551626 C57.8473001,23.3736363 57.1450275,23.4328732 56.5197784,23.4328732 C54.5715384,23.4328732 53.5974184,22.5898872 53.5974184,20.9039153 L53.5974184,20.9039153 L53.5974184,13.0436407 L50.8653516,13.0436407 L50.8653516,21.1089659 C50.8653516,22.7675978 51.3501462,23.9500565 52.3197354,24.656342 C53.2893247,25.3626276 54.7074621,25.7157703 56.5741479,25.7157703 Z M67.1284306,25.4423695 L67.1284306,15.8459995 C67.7989876,15.581712 68.4876678,15.4495683 69.1944711,15.4495683 C70.1187524,15.4495683 70.90711,15.581712 71.5595438,15.8459995 L71.5595438,15.8459995 L71.5595438,13.1530011 C70.7621247,12.9433938 69.9737671,12.8385901 69.1944711,12.8385901 C67.4455859,12.8385901 65.8371552,13.2532481 64.369179,14.082564 L64.369179,14.082564 L64.369179,25.4423695 L67.1284306,25.4423695 Z M77.5739743,25.6884302 C79.1778742,25.6884302 80.5914809,25.5243897 81.8147943,25.1963087 L81.8147943,25.1963087 L81.8147943,16.9942831 C81.8147943,15.5179185 81.4047578,14.4425418 80.5846847,13.768153 C79.7646116,13.0937642 78.6341793,12.7565699 77.1933879,12.7565699 C75.7163501,12.7565699 74.3797668,13.0937642 73.1836381,13.768153 L73.1836381,13.768153 L73.1836381,16.1740805 C74.3707053,15.4996918 75.5577724,15.1624974 76.7448396,15.1624974 C77.4516429,15.1624974 78.0225225,15.3288162 78.4574784,15.6614539 C78.8924344,15.9940916 79.1099123,16.4839348 79.1099123,17.1309835 L79.1099123,17.1309835 L79.1099123,18.1699068 L77.7506751,18.1699068 C75.9383588,18.1699068 74.5338137,18.4843177 73.5370398,19.1131397 C72.5402658,19.7419617 72.0418789,20.6760813 72.0418789,21.9154985 C72.0418789,24.4307863 73.8859107,25.6884302 77.5739743,25.6884302 Z M77.601159,23.6242538 C75.7072885,23.6242538 74.7603533,23.0273286 74.7603533,21.8334782 C74.7603533,21.222883 75.0412623,20.7672149 75.6030803,20.4664739 C76.1648984,20.165733 76.9441944,20.0153625 77.9409683,20.0153625 L77.9409683,20.0153625 L79.1099123,20.0153625 L79.1099123,23.4875534 C78.5480943,23.578687 78.0451765,23.6242538 77.601159,23.6242538 Z M90.8059542,25.7157703 C92.5820242,25.7157703 94.1315546,25.5426165 95.4545455,25.1963087 L95.4545455,25.1963087 L95.4545455,6.4 L92.7224787,6.4 L92.7224787,13.2350213 C92.1334759,12.9160537 91.3179336,12.7565699 90.2758517,12.7565699 C88.3457349,12.7565699 86.764489,13.34666 85.5321139,14.5268404 C84.2997388,15.7070207 83.6835513,17.281354 83.6835513,19.2498401 C83.6835513,21.3003465 84.3269236,22.8906282 85.6136681,24.020685 C86.9004127,25.1507419 88.6311747,25.7157703 90.8059542,25.7157703 Z M90.8603237,23.3371829 C89.5010865,23.3371829 88.4272891,22.9749268 87.6389316,22.2504145 C86.850574,21.5259022 86.4563952,20.5074841 86.4563952,19.19516 C86.4563952,17.9466294 86.8256546,16.966943 87.5641735,16.2561008 C88.3026924,15.5452586 89.2609546,15.1898375 90.4389602,15.1898375 C91.3994878,15.1898375 92.1606606,15.3493213 92.7224787,15.6682889 L92.7224787,15.6682889 L92.7224787,23.2278226 C92.1787838,23.3007295 91.5580655,23.3371829 90.8603237,23.3371829 Z" id="Gurad" fill="#2A3749" fill-rule="nonzero"></path>
                    <path d="M17.1022727,4 C22.97375,4 27.7446398,8.73910174 27.8394704,14.6214023 L27.8409091,14.8 L27.8409091,26.5023256 L18.6132386,28.3492 L18.6136364,23.2247294 L18.6147836,23.1136908 C18.6773247,20.0896123 21.2889757,17.6482377 24.5274622,17.583672 L24.6590909,17.582361 L24.6590909,14.7611768 L24.0669639,14.6496565 C19.63786,13.8154856 15.0970791,13.7845733 10.6591158,14.5572635 L10.2678031,14.6275275 L9.54545455,14.7611768 L9.54545455,17.582361 L9.67043473,17.5835428 C12.8675897,17.6440566 15.4554116,20.0210682 15.5857578,22.9896617 L15.5897618,23.1136908 L15.5905114,23.1876 L15.5905114,28.3456 L6.36363636,26.5023256 L6.36363636,14.8 L6.36507503,14.6214023 C6.45990568,8.73910174 11.2307955,4 17.1022727,4 Z" id="路径" fill="#4364E8"></path>
                </g>
            </g>
        </g>
    </g>
</svg>