<?xml version="1.0" encoding="UTF-8"?>
<svg width="48px" height="48px" viewBox="0 0 48 48" version="1.1" xmlns="http://www.w3.org/2000/svg" xmlns:xlink="http://www.w3.org/1999/xlink">
    <title>切片</title>
    <g id="页面-1" stroke="none" stroke-width="1" fill="none" fill-rule="evenodd">
        <g id="01保险-我的保单" transform="translate(-139.000000, -799.000000)">
            <g id="pool_logo备份-4" transform="translate(139.000000, 799.000000)">
                <circle id="椭圆形" fill="#9F66FF" cx="24" cy="24" r="24"></circle>
                <path d="M30.9254613,19.3319239 C30.4236162,19.0274841 29.7712177,19.0274841 29.2191882,19.3319239 L25.304797,21.6659619 L22.6450185,23.1881607 L18.7306273,25.5221987 C18.2287823,25.8266385 17.5763838,25.8266385 17.0243542,25.5221987 L13.9129151,23.6955603 C13.4110701,23.3911205 13.0597786,22.832981 13.0597786,22.2241015 L13.0597786,18.6215645 C13.0597786,18.012685 13.3608856,17.4545455 13.9129151,17.1501057 L16.9741697,15.3742072 C17.4760148,15.0697674 18.1284133,15.0697674 18.6804428,15.3742072 L21.7416974,17.1501057 C22.2435424,17.4545455 22.5948339,18.012685 22.5948339,18.6215645 L22.5948339,20.9556025 L25.2546125,19.3826638 L25.2546125,17.0486258 C25.2546125,16.4397463 24.9535055,15.8816068 24.401476,15.577167 L18.7306273,12.2283298 C18.2287823,11.9238901 17.5763838,11.9238901 17.0243542,12.2283298 L11.2531365,15.577167 C10.701107,15.8816068 10.4,16.4397463 10.4,17.0486258 L10.4,23.7970402 C10.4,24.4059197 10.701107,24.9640592 11.2531365,25.2684989 L17.0243542,28.6173362 C17.5261993,28.9217759 18.1785978,28.9217759 18.7306273,28.6173362 L22.6450185,26.3340381 L25.304797,24.7610994 L29.2191882,22.4778013 C29.7210332,22.1733615 30.3734317,22.1733615 30.9254613,22.4778013 L33.9867159,24.2536998 C34.4885609,24.5581395 34.8398524,25.1162791 34.8398524,25.7251586 L34.8398524,29.3276956 C34.8398524,29.9365751 34.5387454,30.4947146 33.9867159,30.7991543 L30.9254613,32.6257928 C30.4236162,32.9302326 29.7712177,32.9302326 29.2191882,32.6257928 L26.1579336,30.8498943 C25.6560886,30.5454545 25.304797,29.987315 25.304797,29.3784355 L25.304797,27.0443975 L22.6450185,28.6173362 L22.6450185,30.9513742 C22.6450185,31.5602537 22.9461255,32.1183932 23.498155,32.422833 L29.2693727,35.7716702 C29.7712177,36.0761099 30.4236162,36.0761099 30.9756458,35.7716702 L36.7468635,32.422833 C37.2487085,32.1183932 37.6,31.5602537 37.6,30.9513742 L37.6,24.2029598 C37.6,23.5940803 37.298893,23.0359408 36.7468635,22.7315011 L30.9254613,19.3319239 Z" id="路径" fill="#FFFFFF" fill-rule="nonzero"></path>
            </g>
        </g>
    </g>
</svg>