<?xml version="1.0" encoding="UTF-8"?>
<svg width="36px" height="36px" viewBox="0 0 36 36" version="1.1" xmlns="http://www.w3.org/2000/svg" xmlns:xlink="http://www.w3.org/1999/xlink">
    <title>切片</title>
    <g id="页面-1" stroke="none" stroke-width="1" fill="none" fill-rule="evenodd">
        <g id="03保险-我的结算" transform="translate(-752.000000, -1302.000000)">
            <g id="policy" transform="translate(752.000000, 1302.000000)">
                <g id="编组-12">
                    <rect id="矩形" x="0" y="0" width="36" height="36"></rect>
                    <g id="编组-4" transform="translate(2.571429, 2.571429)">
                        <path d="M5.14285714,0 L15.4285714,0 L15.4285714,0 L24.4285714,8.97566823 L24.4285714,24.4285714 C24.4285714,27.268893 22.1260359,29.5714286 19.2857143,29.5714286 L5.14285714,29.5714286 C2.30253557,29.5714286 2.8705514e-15,27.268893 0,24.4285714 L0,5.14285714 C5.40339348e-16,2.30253557 2.30253557,1.40993703e-15 5.14285714,0 Z" id="矩形" fill="#D3DBFF"></path>
                        <path d="M15.4285714,0 L24.4285714,9 L19.2857143,9 C17.1554731,9 15.4285714,7.27309832 15.4285714,5.14285714 L15.4285714,0 L15.4285714,0 Z" id="矩形" fill="#4364E8"></path>
                        <path d="M24.3590177,16.8771737 C24.4019158,16.9024352 24.457023,16.9398471 24.5226341,16.9865887 L25.0287023,17.3564276 L25.3506892,17.5830017 C25.8604719,17.9309966 26.4793526,18.2965524 27.0519266,18.4226227 C27.6248711,18.5381091 28.2053492,18.6067791 28.7880811,18.6281163 L29.3230688,18.634775 L29.6878692,18.6245036 L29.7611148,18.6245036 C30.0294484,18.6222811 30.2906825,18.7144205 30.5027094,18.8860699 C30.6873748,19.0276646 30.8097116,19.2385305 30.8459816,19.4715063 L30.8568345,19.5896183 L30.8568345,22.002534 C30.8635118,23.0370875 30.7617354,24.0692995 30.5533211,25.0807544 C29.822417,28.5188974 27.9102105,30.3074923 26.3267006,31.2202513 L26.0340135,31.3813182 C25.889965,31.4569083 25.749636,31.5252244 25.614272,31.5869024 L25.3505334,31.701596 C25.3078034,31.7192993 25.2657173,31.7363121 25.2243213,31.7526579 L24.9845956,31.8429184 L24.7636468,31.9183031 L24.5636894,31.9799423 L24.1488505,32.0912062 L24.025439,32.1186794 L23.9598495,32.1277674 C23.8958269,32.1381585 23.8311079,32.1431659 23.7663168,32.1428571 L23.6692502,32.138503 L23.5351832,32.1213475 L23.2640647,32.0628008 L22.9678408,31.982449 L22.6944674,31.8956109 L22.4909406,31.8234555 L22.2723241,31.7388881 L22.040274,31.6410506 L21.7964469,31.5290848 C21.7549197,31.5091989 21.7129707,31.4886884 21.6706346,31.4675357 L21.4122476,31.3327685 L21.1462245,31.1817276 L20.8742217,31.0135549 L20.5978954,30.8273922 C18.7913129,29.5570079 16.8157098,27.0921213 16.7180588,22.3722028 L16.7142857,22.0046665 L16.7142857,19.5918211 C16.7181469,19.3136641 16.8452236,19.053054 17.0584187,18.8860699 C17.233203,18.7458426 17.4409248,18.659158 17.6584095,18.634232 L17.7898865,18.6267532 L17.8631096,18.6267532 L17.8765466,18.6302339 L17.945259,18.6347238 L18.3275746,18.6372983 C19.0623284,18.6402892 19.7956375,18.569118 20.5172625,18.4247786 C21.1331068,18.2935142 21.7559769,17.935468 22.240966,17.5967503 L22.542275,17.3765028 L22.7931892,17.1781871 L23.1469629,16.8771737 C23.5241827,16.6599897 23.9817979,16.6599897 24.3590177,16.8771737 Z" id="路径" fill="#4364E8" fill-rule="nonzero"></path>
                    </g>
                </g>
                <path d="M9,14.1428571 L20.5714286,14.1428571 C21.281509,14.1428571 21.8571429,14.718491 21.8571429,15.4285714 C21.8571429,16.1386518 21.281509,16.7142857 20.5714286,16.7142857 L9,16.7142857 C8.28991961,16.7142857 7.71428571,16.1386518 7.71428571,15.4285714 C7.71428571,14.718491 8.28991961,14.1428571 9,14.1428571 Z" id="矩形" fill="#4364E8"></path>
                <path d="M9,19.2857143 L14.1428571,19.2857143 C14.8529375,19.2857143 15.4285714,19.8613482 15.4285714,20.5714286 C15.4285714,21.281509 14.8529375,21.8571429 14.1428571,21.8571429 L9,21.8571429 C8.28991961,21.8571429 7.71428571,21.281509 7.71428571,20.5714286 C7.71428571,19.8613482 8.28991961,19.2857143 9,19.2857143 Z" id="矩形备份" fill="#4364E8"></path>
            </g>
        </g>
    </g>
</svg>