<?xml version="1.0" encoding="UTF-8"?>
<svg width="16px" height="16px" viewBox="0 0 16 16" version="1.1" xmlns="http://www.w3.org/2000/svg" xmlns:xlink="http://www.w3.org/1999/xlink">
    <title>切片</title>
    <g id="页面-1" stroke="none" stroke-width="1" fill="none" fill-rule="evenodd">
        <g id="02保险-我发布的保险" transform="translate(-460.000000, -1128.000000)" fill-rule="nonzero">
            <g id="tishi" transform="translate(460.000000, 1128.000000)">
                <path d="M7.8,0 C3.49217895,0 0,3.49217895 0,7.8 C0,12.107821 3.49217895,15.6 7.8,15.6 C12.107821,15.6 15.6,12.107821 15.6,7.8 C15.6,3.49217895 12.107821,0 7.8,0 Z" id="路径" fill="#FFB801"></path>
                <path d="M8.25351429,5.98928571 C7.97285465,5.99999168 7.70880892,5.856366 7.56529717,5.6149352 C7.42178542,5.37350441 7.42178542,5.07292417 7.56529717,4.83149337 C7.70880892,4.59006258 7.97285465,4.4464369 8.25351429,4.45714286 C8.66524186,4.47284851 8.99092051,4.81118727 8.99092051,5.22321429 C8.99092051,5.6352413 8.66524186,5.97358006 8.25351429,5.98928571 L8.25351429,5.98928571 Z M5.63382858,8.25797142 C5.26054286,8.56774285 6.6612,6.8094 7.16262858,6.4974 C7.66405715,6.18651429 8.55214286,6.42162858 8.42957142,7.14145714 C8.307,7.8624 7.52811429,10.4932286 7.35094286,11.1194571 C7.17265715,11.7456857 8.44294286,10.5389143 8.69365714,10.3862571 C8.94437142,10.2347143 7.73537142,11.8058571 7.16262858,12.1368 C6.58988571,12.4677429 5.73411429,12.0198 5.90348571,11.4203143 C6.07397142,10.8197143 6.70577142,8.57888571 6.96428571,7.68968571 C7.2228,6.79937142 6.006,7.9482 5.63382858,8.25797142 Z" id="形状" fill="#FFFFFF"></path>
            </g>
        </g>
    </g>
</svg>