<?xml version="1.0" encoding="UTF-8"?>
<svg width="20px" height="20px" viewBox="0 0 20 20" version="1.1" xmlns="http://www.w3.org/2000/svg" xmlns:xlink="http://www.w3.org/1999/xlink">
    <title>切片</title>
    <g id="页面-1" stroke="none" stroke-width="1" fill="none" fill-rule="evenodd">
        <g id="04挖矿" transform="translate(-1570.000000, -1032.000000)">
            <g id="footer" transform="translate(0.000000, 1000.000000)">
                <g id="编组-11" transform="translate(1560.000000, 22.000000)">
                    <g id="global-line" transform="translate(10.000000, 10.000000)">
                        <polygon id="路径" points="0 0 20 0 20 20 0 20"></polygon>
                        <path d="M10,18.3333333 C5.3975,18.3333333 1.66666667,14.6025 1.66666667,10 C1.66666667,5.3975 5.3975,1.66666667 10,1.66666667 C14.6025,1.66666667 18.3333333,5.3975 18.3333333,10 C18.3333333,14.6025 14.6025,18.3333333 10,18.3333333 Z M8.09166667,16.3891667 C7.26951218,14.6452619 6.79322601,12.7585121 6.68916667,10.8333333 L3.385,10.8333333 C3.71630264,13.453462 5.56162654,15.6317153 8.09166667,16.3891667 L8.09166667,16.3891667 Z M8.35833333,10.8333333 C8.48416667,12.8658333 9.065,14.775 10,16.46 C10.9602664,14.7304591 11.5212028,12.8078996 11.6416667,10.8333333 L8.35833333,10.8333333 L8.35833333,10.8333333 Z M16.615,10.8333333 L13.3108333,10.8333333 C13.206774,12.7585121 12.7304878,14.6452619 11.9083333,16.3891667 C14.4383735,15.6317153 16.2836974,13.453462 16.615,10.8333333 Z M3.385,9.16666667 L6.68916667,9.16666667 C6.79322601,7.24148787 7.26951218,5.35473808 8.09166667,3.61083333 C5.56162654,4.36828474 3.71630264,6.546538 3.385,9.16666667 Z M8.35916667,9.16666667 L11.6408333,9.16666667 C11.520626,7.1921657 10.9599755,5.26961002 10,3.54 C9.03973358,5.26954091 8.47879723,7.19210043 8.35833333,9.16666667 L8.35916667,9.16666667 Z M11.9083333,3.61083333 C12.7304878,5.35473808 13.206774,7.24148787 13.3108333,9.16666667 L16.615,9.16666667 C16.2836974,6.546538 14.4383735,4.36828474 11.9083333,3.61083333 L11.9083333,3.61083333 Z" id="形状" fill="#959595" fill-rule="nonzero"></path>
                    </g>
                </g>
            </g>
        </g>
    </g>
</svg>