<svg width="20px" height="20px" viewBox="0 0 20 20" version="1.1" xmlns="http://www.w3.org/2000/svg" xmlns:xlink="http://www.w3.org/1999/xlink">
    <title>icon/审批历史/状态</title>
    <g id="v1.1（审批流）" stroke="none" stroke-width="1" fill="none" fill-rule="evenodd">
        <g id="首页-我的单据-差旅申请单" transform="translate(-544.000000, -1309.000000)">
            <g id="编组-19" transform="translate(480.000000, 0.000000)">
                <g id="审批历史" transform="translate(30.000000, 831.000000)">
                    <g id="编组-15" transform="translate(0.000000, 48.000000)">
                        <g id="编组-24" transform="translate(0.000000, 99.000000)">
                            <g id="编组-14" transform="translate(0.000000, 300.000000)">
                                <g id="icon/审批历史/状态" transform="translate(34.000000, 31.000000)">
                                    <g id="编组-16" fill="#FF5759">
                                        <circle id="椭圆形" cx="10" cy="10" r="10"></circle>
                                    </g>
                                    <g id="感叹号备份" transform="translate(8.888889, 4.444444)" fill="#FFFFFF" fill-rule="nonzero">
                                        <path d="M1.11111113,7.77777778 C1.49369082,7.77777778 1.80227308,7.50962513 1.80227308,7.17956194 L1.80227308,0.598248775 C1.80227308,0.267576046 1.49369081,6.31593543e-14 1.11111111,6.31593543e-14 C0.731247446,6.31593543e-14 0.422703188,0.267576046 0.422703188,0.598248775 L0.422703188,7.17956196 C0.422684201,7.50962513 0.731247465,7.77777778 1.11111113,7.77777778 Z" id="路径"></path>
                                        <path d="M1.11252118,9.33333333 C0.683046255,9.33333333 0.334710354,9.68173905 0.334710354,10.1110698 C0.334710354,10.5404832 0.683128889,10.8888889 1.11252118,10.8888889 C1.54287194,10.8888889 1.89026591,10.5404832 1.89026591,10.1110698 C1.89024939,9.68165641 1.54287194,9.33333333 1.11252118,9.33333333 Z" id="路径"></path>
                                    </g>
                                </g>
                            </g>
                        </g>
                    </g>
                </g>
            </g>
        </g>
    </g>
</svg>