<?xml version="1.0" encoding="UTF-8"?>
<svg width="33px" height="32px" viewBox="0 0 33 32" version="1.1" xmlns="http://www.w3.org/2000/svg" xmlns:xlink="http://www.w3.org/1999/xlink">
    <title>切片</title>
    <defs>
        <filter id="filter-1">
            <feColorMatrix in="SourceGraphic" type="matrix" values="0 0 0 0 0.262745 0 0 0 0 0.392157 0 0 0 0 0.909804 0 0 0 1.000000 0"></feColorMatrix>
        </filter>
    </defs>
    <g id="页面-1" stroke="none" stroke-width="1" fill="none" fill-rule="evenodd">
        <g id="00gurad" transform="translate(-221.000000, -556.000000)">
            <g id="Github" transform="translate(200.000000, 540.000000)" filter="url(#filter-1)">
                <g transform="translate(21.333333, 16.000000)">
                    <rect id="矩形" fill="#D8D8D8" opacity="0" x="0" y="0" width="32" height="32"></rect>
                    <path d="M14.9165938,30.9333333 C13.4681722,30.9383899 12.2884991,29.7688133 12.2784344,28.3177366 L12.2679861,26.4457391 C7.08311896,27.5754769 5.9894255,24.2425416 5.9894255,24.2425416 C5.14138383,22.0851546 3.91964033,21.5117587 3.91964033,21.5117587 C2.22883984,20.3519118 4.04771972,20.3754639 4.04771972,20.3754639 C5.9175496,20.5063679 6.90279821,22.2998289 6.90279821,22.2998289 C8.56486596,25.153665 11.2631617,24.3289288 12.325481,23.8524171 C12.4927414,22.6454366 12.9762088,21.8220235 13.5093348,21.3546857 C9.36979383,20.8834078 5.01855793,19.281069 5.01855793,12.1281897 C5.01855793,10.0899453 5.74638577,8.42477139 6.93936717,7.11699593 C6.74598608,6.64571808 6.10831862,4.74755155 7.11968791,2.17648799 C7.11968791,2.17648799 8.68507979,1.67510104 12.2457689,4.09035594 C13.7662855,3.67590195 15.3348135,3.46462185 16.9105997,3.46200507 C18.4929553,3.46856203 20.0884007,3.67538561 21.5780132,4.09035594 C25.1360902,1.67513044 26.69887,2.17648799 26.69887,2.17648799 C27.7128514,4.7488453 27.0751839,6.64704123 26.8818028,7.11699593 C28.0761049,8.42347764 28.8,10.0899453 28.8,12.1282191 C28.8,19.2994167 24.4396072,20.878174 20.2909387,21.340278 C20.9586596,21.9202014 21.5545046,23.0551731 21.5545046,24.7975897 C21.5545046,27.2966444 21.5453477,28.3164134 21.5453477,28.3164134 C21.5353037,29.7666861 20.3574252,30.9362323 18.9098003,30.9333333 L14.9165645,30.9333333 L14.9165938,30.9333333 Z" id="路径" fill="#1D1929" fill-rule="nonzero"></path>
                </g>
            </g>
        </g>
    </g>
</svg>