<?xml version="1.0" encoding="UTF-8"?>
<svg width="33px" height="32px" viewBox="0 0 33 32" version="1.1" xmlns="http://www.w3.org/2000/svg" xmlns:xlink="http://www.w3.org/1999/xlink">
    <title>切片</title>
    <g id="页面-1" stroke="none" stroke-width="1" fill="none" fill-rule="evenodd">
        <g id="00gurad" transform="translate(-449.000000, -556.000000)">
            <g id="编组" transform="translate(200.000000, 540.000000)">
                <g id="apps-fill" transform="translate(249.333333, 16.000000)">
                    <polygon id="路径" points="0 0 32 0 32 32 0 32"></polygon>
                    <path d="M9,3.33333333 C12.1296136,3.33333333 14.6666667,5.87038642 14.6666667,9 L14.6666667,14.6666667 L9,14.6666667 C5.87038642,14.6666667 3.33333333,12.1296136 3.33333333,9 C3.33333333,5.87038642 5.87038642,3.33333333 9,3.33333333 L9,3.33333333 Z M9,17.3333333 L14.6666667,17.3333333 L14.6666667,23 C14.6666667,26.1296136 12.1296136,28.6666667 9,28.6666667 C5.87038642,28.6666667 3.33333333,26.1296136 3.33333333,23 C3.33333333,19.8703864 5.87038642,17.3333333 9,17.3333333 Z M23,3.33333333 C26.1296136,3.33333333 28.6666667,5.87038642 28.6666667,9 C28.6666667,12.1296136 26.1296136,14.6666667 23,14.6666667 L17.3333333,14.6666667 L17.3333333,9 C17.3333333,5.87038642 19.8703864,3.33333333 23,3.33333333 Z M17.3333333,17.3333333 L23,17.3333333 C26.1296136,17.3333333 28.6666667,19.8703864 28.6666667,23 C28.6666667,26.1296136 26.1296136,28.6666667 23,28.6666667 C19.8703864,28.6666667 17.3333333,26.1296136 17.3333333,23 L17.3333333,17.3333333 Z" id="形状" fill="#FFFFFF" fill-rule="nonzero"></path>
                </g>
            </g>
        </g>
    </g>
</svg>