<?xml version="1.0" encoding="UTF-8"?>
<svg width="885px" height="545px" viewBox="0 0 885 545" version="1.1" xmlns="http://www.w3.org/2000/svg" xmlns:xlink="http://www.w3.org/1999/xlink">
    <title>切片</title>
    <defs>
        <linearGradient x1="19.1622448%" y1="42.0268404%" x2="81.9697298%" y2="43.0959921%" id="linearGradient-1">
            <stop stop-color="#DF8305" offset="0%"></stop>
            <stop stop-color="#ECB362" offset="100%"></stop>
        </linearGradient>
        <linearGradient x1="20.07743%" y1="42.0268404%" x2="81.0209506%" y2="43.0959921%" id="linearGradient-2">
            <stop stop-color="#E49C35" offset="0%"></stop>
            <stop stop-color="#FFBE61" offset="100%"></stop>
        </linearGradient>
        <path d="M51.7974145,117.89238 C27.658545,101.532666 14.0502047,87.4778004 10.9723936,75.7277832 C7.95308385,64.2011038 6.83000673,50.456362 7.60316225,34.4935577 C7.69872752,32.5203864 8.75944607,30.7206971 10.4394192,29.681357 L51.9841953,3.97907114 C53.9185438,2.78235799 56.3632767,2.78235799 58.2976253,3.97907114 L99.9205024,29.7296754 C101.556155,30.741593 102.607541,32.476315 102.747812,34.3945591 C104.081845,52.6377528 102.773099,66.4154941 98.8215743,75.7277832 C92.8537706,89.7917011 79.4169244,103.850773 58.5110356,117.904998 L58.5110359,117.904998 C56.4800152,119.270375 53.8232884,119.265382 51.7974145,117.89238 Z" id="path-3"></path>
        <filter x="-0.5%" y="0.5%" width="101.0%" height="98.9%" filterUnits="objectBoundingBox" id="filter-4">
            <feOffset dx="-1" dy="0" in="SourceAlpha" result="shadowOffsetInner1"></feOffset>
            <feComposite in="shadowOffsetInner1" in2="SourceAlpha" operator="arithmetic" k2="-1" k3="1" result="shadowInnerInner1"></feComposite>
            <feColorMatrix values="0 0 0 0 1   0 0 0 0 0.961827401   0 0 0 0 0.90703125  0 0 0 0.6 0" type="matrix" in="shadowInnerInner1"></feColorMatrix>
        </filter>
        <linearGradient x1="42.2850153%" y1="42.0334993%" x2="57.8805885%" y2="3.39514691%" id="linearGradient-5">
            <stop stop-color="#E39A10" offset="0%"></stop>
            <stop stop-color="#F09100" stop-opacity="0" offset="100%"></stop>
        </linearGradient>
        <linearGradient x1="42.8758115%" y1="42.0424361%" x2="57.6118425%" y2="43.0959921%" id="linearGradient-6">
            <stop stop-color="#FFD376" offset="0%"></stop>
            <stop stop-color="#FDC764" offset="100%"></stop>
        </linearGradient>
        <path d="M13.5070958,13.8677022 L39,0 L39,0 L39,92 C33.8959183,88.8884312 30.6205101,86.8512701 29.1737755,85.8885169 C27.7270409,84.9257636 25.7795371,83.4872523 23.3312642,81.572983 L24.8526813,79.1059478 C26.1886199,76.9396731 25.8540575,74.138232 24.045551,72.347483 L23.5621592,71.8688376 C22.0331533,70.3548448 19.6668257,70.0834287 17.8347304,71.2119058 L16.1314104,72.2610638 C15.2973615,72.774799 14.2139625,72.6088308 13.5719515,71.8689772 C11.7317356,69.7483122 10.2896146,67.6721441 9.24558857,65.6404727 C7.99468546,63.2062191 6.70363487,60.4289985 5.37243681,57.3088108 C11.7556435,55.7203034 16.133857,52.4895995 18.5070774,47.6166992 C20.4437675,43.6401206 21.8708975,39.8301457 22.7884677,36.1867745 C23.091235,34.9845502 22.3620893,33.7645085 21.159867,33.4617331 C21.0805476,33.4417568 21.0001957,33.4261308 20.9191708,33.4149251 C19.567031,33.2279241 18.2973003,34.1086764 17.9988183,35.4406524 C16.9995711,39.8995113 16.1228491,42.7086819 15.3686523,43.8681641 C10.3970967,51.5113025 4.93277842,52.2440929 3.85171576,52.2440929 C2.88028201,47.6218854 2.30281435,44.2281309 2.11931278,42.0628296 C1.96022907,40.1856568 1.96022907,37.0808861 2.11931278,32.7485176 L12.8235863,29.5980646 C15.7505001,28.7366233 17.4248963,25.6655546 16.5634549,22.7386407 C16.4012973,22.1876788 16.1542159,21.6653729 15.8311152,21.1905465 L12.8093079,16.7497198 C12.1879099,15.8365176 12.4244639,14.5924783 13.337666,13.9710803 C13.3923969,13.9338381 13.4489431,13.8993362 13.5070958,13.8677022 Z" id="path-7"></path>
        <filter x="-0.7%" y="-0.3%" width="101.4%" height="100.5%" filterUnits="objectBoundingBox" id="filter-8">
            <feOffset dx="0.5" dy="0.5" in="SourceAlpha" result="shadowOffsetInner1"></feOffset>
            <feComposite in="shadowOffsetInner1" in2="SourceAlpha" operator="arithmetic" k2="-1" k3="1" result="shadowInnerInner1"></feComposite>
            <feColorMatrix values="0 0 0 0 1   0 0 0 0 1   0 0 0 0 1  0 0 0 0.2 0" type="matrix" in="shadowInnerInner1"></feColorMatrix>
        </filter>
        <linearGradient x1="58.0099948%" y1="42.274426%" x2="44.2385582%" y2="66.1079738%" id="linearGradient-9">
            <stop stop-color="#FFC364" offset="0%"></stop>
            <stop stop-color="#FFCA7E" offset="100%"></stop>
        </linearGradient>
        <path d="M265,134 L265,148 L276,148 C280.434082,148.387302 284,151.969898 284,156 L284,170 L277,170 L277,156 L266,156 C261.565918,155.790965 258,152.208368 258,148 L258,134 L265,134 Z M258,158 C261.865993,158 265,161.104891 265,165 L265,170 L258,170 L258,158 Z M284,134 L284,146 C280.134007,146 277,142.895109 277,139 L277,134 L284,134 Z" id="path-10"></path>
        <filter x="-3.8%" y="-2.8%" width="107.7%" height="111.1%" filterUnits="objectBoundingBox" id="filter-11">
            <feOffset dx="0" dy="2" in="SourceAlpha" result="shadowOffsetOuter1"></feOffset>
            <feColorMatrix values="0 0 0 0 0.826681386   0 0 0 0 0.31593131   0 0 0 0 0.24680724  0 0 0 1 0" type="matrix" in="shadowOffsetOuter1"></feColorMatrix>
        </filter>
        <path d="M521.880036,271.169969 C521.865983,270.923084 522.030657,271.016255 522.040026,271.021693 C524.31376,272.750612 527.303126,278.059906 527.303126,284.233841 C527.303126,287.566243 524.646713,290.768858 522.087816,294.144765 L521.541977,294.870936 C519.191842,298.030129 517.095401,301.357408 517.457605,305.095432 C518.10261,311.756612 523.111672,314.910285 519.042373,313.771569 C511.769666,311.73631 504.627763,300.724736 512.307291,290.681126 C515.635014,286.328918 521.687976,283.098025 521.876793,271.177582 L521.876793,271.177582 Z M530.634093,288.314873 C530.679856,288.238742 530.746158,288.260494 530.792642,288.292396 C532.301378,289.592802 536.540757,294.068995 535.942596,301.170289 C535.324976,308.503604 529.620461,311.722171 529.381918,311.842532 C526.335979,313.378221 527.554642,314.88092 526.335979,313.378221 C524.237369,310.789736 520.504985,305.970224 527.054493,295.972655 C528.985546,293.025263 530.509055,289.815397 530.634093,288.314873 Z" id="path-12"></path>
        <filter x="-5.6%" y="-3.5%" width="107.4%" height="104.7%" filterUnits="objectBoundingBox" id="filter-13">
            <feOffset dx="-1" dy="-1" in="SourceAlpha" result="shadowOffsetOuter1"></feOffset>
            <feColorMatrix values="0 0 0 0 0.2   0 0 0 0 0.380392157   0 0 0 0 0.760784314  0 0 0 1 0" type="matrix" in="shadowOffsetOuter1"></feColorMatrix>
        </filter>
    </defs>
    <g id="页面-1" stroke="none" stroke-width="1" fill="none" fill-rule="evenodd">
        <g id="00gurad" transform="translate(-932.000000, -233.000000)">
            <g id="编组-2" transform="translate(932.000000, 234.000000)">
                <path d="M679.32,473.98 C690.81,473.98 700.12,464.6675 700.12,453.18 C700.12,441.6925 690.81,432.38 679.32,432.38 C667.835,432.38 658.52,441.6925 658.52,453.18 C658.52,464.6675 667.835,473.98 679.32,473.98 Z" id="Path" fill="#F2F6F9" fill-rule="nonzero"></path>
                <polygon id="Path" fill="#F2F6F9" fill-rule="nonzero" points="693.76 302.7 664.885 302.7 664.885 417.215 693.76 417.215"></polygon>
                <polygon id="Path" fill="#F2F6F9" fill-rule="nonzero" points="123.5205 258.385 94.6455 258.385 94.6455 372.9 123.5205 372.9"></polygon>
                <polygon id="Path" fill="#F2F6F9" fill-rule="nonzero" points="457.0605 160.15 266.4755 160.15 361.7705 4.26325641e-14"></polygon>
                <polygon id="Path" fill="#F2F6F9" fill-rule="nonzero" points="493.91 473.45 303.325 473.45 398.615 313.3"></polygon>
                <polygon id="Path" fill="#F2F6F9" fill-rule="nonzero" points="884.515 207.825 693.93 207.825 789.225 47.675"></polygon>
                <path d="M456.7445,543.99 C675.555,543.99 852.935,542.595 852.935,540.875 C852.935,539.155 675.555,537.76 456.7445,537.76 C237.935,537.76 60.5545,539.155 60.5545,540.875 C60.5545,542.595 237.935,543.99 456.7445,543.99 Z" id="Path" fill="#F5F7FB" fill-rule="nonzero"></path>
                <polygon id="Path" fill="#EF6E45" fill-rule="nonzero" points="643.895 114.35 667.435685 137.914661 661.225 146.590625 706.345 137.914661 713.773438 90.9111328 702.759904 99.5560517 680.755 77.525 678.195 94.22 662.81 95.455 661.225 111.17"></polygon>
                <polygon id="Path" fill="#72A065" fill-rule="nonzero" points="832.83 514.51 842.795 540.875 759.685 540.875 797.01 519.51"></polygon>
                <polygon id="Path" fill="#4364E8" fill-rule="nonzero" points="624.795 187.375 611.48 183.17 656.965 39.26 677.05 22.04"></polygon>
                <polygon id="Path" fill="#274992" fill-rule="nonzero" points="624.795 187.375 638.11 191.585 683.59 47.675 677.05 22.04"></polygon>
                <polygon id="Path" fill="#4364E8" fill-rule="nonzero" points="628.39 193.397 618.395 190.2375 607.09 225.994 617.09 229.1535"></polygon>
                <polygon id="Path" fill="#4364E8" fill-rule="nonzero" points="601.65 177.005 598.49 187.0025 646.54 202.1905 649.7 192.1925"></polygon>
                <path d="M610.475,242.17 C615.715,242.17 619.96,237.9235 619.96,232.685 C619.96,227.4465 615.715,223.2 610.475,223.2 C605.235,223.2 600.99,227.4465 600.99,232.685 C600.99,237.9235 605.235,242.17 610.475,242.17 Z" id="Path" fill="#4364E8" fill-rule="nonzero"></path>
                <path d="M645.845,226.315 C645.845,226.315 645.48,219.92 646.575,216.255 C647.76,212.28 649.91,205.66 642.24,202.62 C634.57,199.58 614.995,192.31 609.63,195.01 C604.265,197.71 597.485,215.34 603.57,219.69 C609.655,224.04 630.355,229.49 630.355,229.49" id="Path" fill="#4364E8" fill-rule="nonzero"></path>
                <path d="M625.06,200.605 C624.815,201.3985 624.395,202.1265 623.825,202.733 C623.26,203.339 622.56,203.8085 621.785,204.105 C621.785,204.105 625.87,205.22 625.18,208.16 C624.41,211.415 621.68,211.2 621.68,211.2 C621.68,211.2 625.53,212.345 624.8,215.985 C624.005,219.985 619.625,218.595 619.625,218.595 C619.625,218.595 623.065,220.215 621.91,223.185 C620.755,226.155 616.99,225.465 616.99,225.465" id="Path" stroke="#FFFFFF" stroke-width="1.5" stroke-linecap="square"></path>
                <line x1="622.06" y1="204.195" x2="609.965" y2="201.31" id="Path" stroke="#FFFFFF" stroke-width="1.5" stroke-linecap="square"></line>
                <line x1="622.14" y1="211.37" x2="606.41" y2="207.835" id="Path" stroke="#FFFFFF" stroke-width="1.5" stroke-linecap="square"></line>
                <line x1="620.275" y1="218.82" x2="605.31" y2="214.06" id="Path" stroke="#FFFFFF" stroke-width="1.5" stroke-linecap="square"></line>
                <path d="M635.49,209.835 L628.675,206.095 C628.675,206.095 621.955,212.815 617.675,212.475 C617.675,212.475 624.3,198.79 624.06,197.14 C623.82,195.49 639.245,202.585 639.245,202.585" id="Path" fill="#4364E8" fill-rule="nonzero"></path>
                <path d="M635.635,209.285 L628.815,205.55 C628.815,205.55 623.17,212.385 618.91,212.05" id="Path" stroke="#FFFFFF" stroke-width="1.5" stroke-linecap="square"></path>
                <path d="M782.59,521.015 L745.4,363.105 L741.34,400.605 L750.34,521.025 L690.625,521.025 L683.205,393.105 C682.695,384.3345 683.53,375.538 685.68,367.02 L713.575,256.385 L802.215,255.675 L811.015,393.735 L840.015,516.505 L782.59,521.015 Z" id="Path" fill="#24272D" fill-rule="nonzero"></path>
                <line x1="746.14" y1="371.535" x2="740.185" y2="309.19" id="Path" stroke="#FFFFFF" stroke-width="1.5" stroke-linecap="square"></line>
                <polygon id="Path" fill="#72A065" fill-rule="nonzero" points="740.365 521.01 750.325 540.875 660.72 540.875 698.045 521.01"></polygon>
                <path d="M677.625,216.235 C677.625,216.235 705.89,171.995 749.745,172.955 C801.455,174.095 826.055,211.065 836.61,235.08 C837.58,237.2835 837.985,239.6935 837.795,242.093 C837.605,244.493 836.82,246.8075 835.51,248.8295 C834.205,250.851 832.415,252.5165 830.305,253.6765 C828.195,254.8365 825.83,255.4545 823.425,255.475 L776.34,255.845 L713.575,256.38 L709.075,241.165 L700.47,251.235 C696.1,256.357 689.99,259.6755 683.315,260.5475 C676.64,261.4195 669.875,259.783 664.34,255.955 L629.745,232.055 L642.91,199.875 L677.625,216.235 Z" id="Path" fill="#72A065" fill-rule="nonzero"></path>
                <line x1="743.48" y1="126.38" x2="744.83" y2="175.765" id="Path" stroke="#FFCEB1" stroke-width="32.5" stroke-linecap="round" stroke-linejoin="round"></line>
                <path d="M735.7,162.13 L733.07,162.185 C730.015,162.249 726.98,161.6385 724.19,160.3975 C721.395,159.157 718.91,157.3155 716.91,155.0055 C714.91,152.695 713.44,149.972 712.61,147.0305 C711.78,144.0885 711.61,141.0005 712.11,137.985 L714.61,123.05 C715.41,118.227 717.885,113.84 721.595,110.6595 C725.31,107.4795 730.025,105.709 734.915,105.66 L734.915,105.66 C740.43,105.6055 745.74,107.7435 749.68,111.6035 C753.615,115.464 755.86,120.7305 755.915,126.245 L756.065,141.125 C756.12,146.6025 754.01,151.8805 750.2,155.813 C746.385,159.7455 741.175,162.0155 735.7,162.13 L735.7,162.13 Z" id="Path" fill="#FFCEB1" fill-rule="nonzero"></path>
                <path d="M762.485,142.248 C765.015,138.866 764.33,134.0725 760.945,131.541 C757.565,129.01 752.775,129.6995 750.24,133.082 L747.645,136.552 C745.11,139.9345 745.8,144.728 749.18,147.2595 C752.56,149.7905 757.355,149.1005 759.885,145.7185 L762.485,142.248 Z" id="Path" fill="#FFCEB1" fill-rule="nonzero"></path>
                <line x1="759.57" y1="137.4" x2="754.31" y2="142.9" id="Path" stroke="#2A3749" stroke-width="1.5" stroke-linecap="square"></line>
                <polyline id="Path" stroke="#2A3749" stroke-width="1.5" stroke-linecap="square" points="722.91 129.965 721.38 142.005 725.66 142.575"></polyline>
                <path d="M748.07,141.98 L744.255,119.63 L743.35,114.33 C741.925,115.5975 740.305,116.6225 738.55,117.365 C732.175,120.08 713.96,117.1 712.595,104.02 C711.485,93.345 722.06,100.39 727.82,100.255 C736.87,100.04 743.57,95.34 755.22,103.085 C769.16,112.355 760.44,131.17 760.44,131.17 C760.44,131.17 754.21,128.08 748.07,141.98 Z" id="Path" fill="#24272D" fill-rule="nonzero"></path>
                <polygon id="Path" fill="#24272D" fill-rule="nonzero" points="730.49 162.185 738.32 162.19 730.595 168.46"></polygon>
                <path d="M729.105,135.175 C730.285,135.175 731.245,134.217 731.245,133.035 C731.245,131.853 730.285,130.895 729.105,130.895 C727.925,130.895 726.965,131.853 726.965,133.035 C726.965,134.217 727.925,135.175 729.105,135.175 Z" id="Path" fill="#2A3749" fill-rule="nonzero"></path>
                <path d="M717.88,135.175 C719.06,135.175 720.02,134.217 720.02,133.035 C720.02,131.853 719.06,130.895 717.88,130.895 C716.7,130.895 715.74,131.853 715.74,133.035 C715.74,134.217 716.7,135.175 717.88,135.175 Z" id="Path" fill="#2A3749" fill-rule="nonzero"></path>
                <line x1="785.64" y1="225.76" x2="763.585" y2="204.7" id="Path" stroke="#FFFFFF" stroke-width="1.5" stroke-linecap="square"></line>
                <line x1="709.065" y1="241.16" x2="703.625" y2="223.835" id="Path" stroke="#FFFFFF" stroke-width="1.5" stroke-linecap="square"></line>
                <path d="M732.81,145.445 C732.81,145.445 729.555,146.375 728.435,148.995" id="Path" stroke="#2A3749" stroke-width="1.5" stroke-linecap="square"></path>
                <line x1="716.99" y1="124.7" x2="720.67" y2="125.74" id="Path" stroke="#2A3749" stroke-width="1.5" stroke-linecap="square"></line>
                <line x1="732.37" y1="125.32" x2="726.74" y2="126.45" id="Path" stroke="#2A3749" stroke-width="1.5" stroke-linecap="square"></line>
                <polygon id="Path" fill="#EF6E45" fill-rule="nonzero" points="462.505 219.94 381.325 219.94 381.325 272.045 462.505 272.045"></polygon>
                <polygon id="Path" fill="#EF6E45" fill-rule="nonzero" points="299.94 367.395 218.76 367.395 218.76 419.5 299.94 419.5"></polygon>
                <polygon id="Path" fill="#72A065" fill-rule="nonzero" points="150.015 301.585 68.835 301.585 68.835 353.69 150.015 353.69"></polygon>
                <polygon id="Path" fill="#72A065" fill-rule="nonzero" points="304.555 199.505 223.375 199.505 223.375 251.61 304.555 251.61"></polygon>
                <polygon id="Path" fill="#72A065" fill-rule="nonzero" points="560.71 339.015 479.5305 339.015 479.5305 391.12 560.71 391.12"></polygon>
                <polygon id="Path" fill="#EF6E45" fill-rule="nonzero" points="211.3245 83.075 130.1445 83.075 130.1445 135.18 211.3245 135.18"></polygon>
                <polygon id="Path" fill="#EF6E45" fill-rule="nonzero" points="646.86 120.075 612.495 132.89 594.285 84.075 628.655 71.255 642.78 80.51 637.515 95.02 651.16 102.985"></polygon>
                <path d="M798.025,310.91 C802.885,310.91 806.825,306.97 806.825,302.11 C806.825,297.25 802.885,293.31 798.025,293.31 C793.165,293.31 789.225,297.25 789.225,302.11 C789.225,306.97 793.165,310.91 798.025,310.91 Z" id="Path" fill="#FFC774" fill-rule="nonzero"></path>
                <line x1="125.9795" y1="83.075" x2="68.9345" y2="83.075" id="Path" stroke="#EDF0F4" stroke-width="1.5"></line>
                <line x1="125.98" y1="135.175" x2="88.285" y2="135.175" id="Path" stroke="#EDF0F4" stroke-width="1.5"></line>
                <line x1="125.98" y1="89.09" x2="104.215" y2="89.09" id="Path" stroke="#EDF0F4" stroke-width="1.5"></line>
                <line x1="125.9795" y1="129.12" x2="105.5995" y2="129.12" id="Path" stroke="#EDF0F4" stroke-width="1.5"></line>
                <line x1="218.76" y1="199.505" x2="161.715" y2="199.505" id="Path" stroke="#EDF0F4" stroke-width="1.5"></line>
                <line x1="218.7605" y1="251.61" x2="181.0655" y2="251.61" id="Path" stroke="#EDF0F4" stroke-width="1.5"></line>
                <line x1="218.76" y1="205.52" x2="196.995" y2="205.52" id="Path" stroke="#EDF0F4" stroke-width="1.5"></line>
                <line x1="218.76" y1="245.55" x2="198.38" y2="245.55" id="Path" stroke="#EDF0F4" stroke-width="1.5"></line>
                <line x1="440.6045" y1="110.215" x2="383.5595" y2="110.215" id="Path" stroke="#EDF0F4" stroke-width="1.5"></line>
                <line x1="440.605" y1="162.32" x2="402.91" y2="162.32" id="Path" stroke="#EDF0F4" stroke-width="1.5"></line>
                <line x1="440.605" y1="116.23" x2="418.84" y2="116.23" id="Path" stroke="#EDF0F4" stroke-width="1.5"></line>
                <line x1="440.6045" y1="156.26" x2="420.2245" y2="156.26" id="Path" stroke="#EDF0F4" stroke-width="1.5"></line>
                <line x1="376.91" y1="219.94" x2="319.865" y2="219.94" id="Path" stroke="#EDF0F4" stroke-width="1.5"></line>
                <line x1="376.9095" y1="272.04" x2="339.2195" y2="272.04" id="Path" stroke="#EDF0F4" stroke-width="1.5"></line>
                <line x1="376.9105" y1="225.95" x2="355.1505" y2="225.95" id="Path" stroke="#EDF0F4" stroke-width="1.5"></line>
                <line x1="376.9105" y1="265.98" x2="356.5305" y2="265.98" id="Path" stroke="#EDF0F4" stroke-width="1.5"></line>
                <line x1="450.2805" y1="338.015" x2="393.2355" y2="338.015" id="Path" stroke="#EDF0F4" stroke-width="1.5"></line>
                <line x1="450.28" y1="390.115" x2="412.585" y2="390.115" id="Path" stroke="#EDF0F4" stroke-width="1.5"></line>
                <line x1="450.2795" y1="344.025" x2="428.5145" y2="344.025" id="Path" stroke="#EDF0F4" stroke-width="1.5"></line>
                <line x1="450.2805" y1="384.055" x2="429.9005" y2="384.055" id="Path" stroke="#EDF0F4" stroke-width="1.5"></line>
                <line x1="212.12" y1="367.395" x2="155.075" y2="367.395" id="Path" stroke="#EDF0F4" stroke-width="1.5"></line>
                <line x1="212.1195" y1="419.5" x2="174.4295" y2="419.5" id="Path" stroke="#EDF0F4" stroke-width="1.5"></line>
                <line x1="212.1205" y1="373.41" x2="190.3605" y2="373.41" id="Path" stroke="#EDF0F4" stroke-width="1.5"></line>
                <line x1="212.12" y1="413.44" x2="191.745" y2="413.44" id="Path" stroke="#EDF0F4" stroke-width="1.5"></line>
                <line x1="57.045" y1="301.585" x2="3.55271368e-14" y2="301.585" id="Path" stroke="#EDF0F4" stroke-width="1.5"></line>
                <line x1="57.0455" y1="353.685" x2="19.35545" y2="353.685" id="Path" stroke="#EDF0F4" stroke-width="1.5"></line>
                <line x1="57.0455" y1="307.595" x2="35.28025" y2="307.595" id="Path" stroke="#EDF0F4" stroke-width="1.5"></line>
                <line x1="57.045" y1="347.625" x2="36.66505" y2="347.625" id="Path" stroke="#EDF0F4" stroke-width="1.5"></line>
                <g id="编组-4" transform="translate(803.804278, 269.943723) rotate(-20.000000) translate(-803.804278, -269.943723) translate(751.804278, 207.943723)">
                    <path d="M47.7880844,120.946519 C22.5636418,105.290933 8.29377191,90.9587707 4.97847477,77.9500328 C1.73900892,65.2388456 0.110413798,50.8371986 0.0926894059,34.7450916 C0.0903610397,32.6338818 1.1977849,30.6768092 3.00878162,29.591681 L49.0326184,2.01473131 C51.0755729,0.790616655 53.6491401,0.890709568 55.590849,2.26979844 L94.767127,30.0945503 C95.8987717,30.8982964 96.7167456,32.0695345 97.0816945,33.4087283 C102.89663,54.746854 103.046167,69.6004387 97.530306,77.9694824 C88.9661187,90.9636567 74.6598111,105.175017 54.6113834,120.603565 L54.6113865,120.603569 C52.6304369,122.128036 49.9119089,122.264674 47.7880844,120.946519 Z" id="路径-3" fill="url(#linearGradient-1)"></path>
                    <g id="路径-3">
                        <use fill="url(#linearGradient-2)" fill-rule="evenodd" xlink:href="#path-3"></use>
                        <use fill="black" fill-opacity="1" filter="url(#filter-4)" xlink:href="#path-3"></use>
                    </g>
                    <g id="编组-3" transform="translate(16.366732, 13.026123)">
                        <path d="M11.5070958,13.8677022 L37,0 L37,0 L38.9584015,92.0448691 C38.970146,92.597027 38.5320573,93.054163 37.9798994,93.0659111 C37.7698239,93.0703808 37.5636781,93.008563 37.3907267,92.8892335 C31.9014374,89.1018432 28.495787,86.768271 27.1737755,85.8885169 C25.7270409,84.9257636 23.7795371,83.4872523 21.3312642,81.572983 L22.8526813,79.1059478 C24.1886199,76.9396731 23.8540575,74.138232 22.045551,72.347483 L21.5621592,71.8688376 C20.0331533,70.3548448 17.6668257,70.0834287 15.8347304,71.2119058 L14.1314104,72.2610638 C13.2973615,72.774799 12.2139625,72.6088308 11.5719515,71.8689772 C9.73173556,69.7483122 8.28961458,67.6721441 7.24558857,65.6404727 C5.99468546,63.2062191 4.70363487,60.4289985 3.37243681,57.3088108 C12.9585052,57.4637565 18.944781,56.2721151 21.3312642,53.7338867 C23.3613684,51.5746977 24.5818948,46.5315518 24.9928433,38.6044488 C25.122339,36.1070963 23.3020273,33.9333284 20.8207487,33.6222092 C18.4073967,33.3196072 16.1516579,34.8776176 15.5802007,37.2417818 C14.7528447,40.6646746 14.0156619,42.8734686 13.3686523,43.8681641 C8.39709668,51.5113025 2.93277842,52.2440929 1.85171576,52.2440929 C0.880282008,47.6218854 0.302814347,44.2281309 0.119312778,42.0628296 C-0.0397709259,40.1856568 -0.0397709259,37.0808861 0.119312778,32.7485176 L10.8235863,29.5980646 C13.7505001,28.7366233 15.4248963,25.6655546 14.5634549,22.7386407 C14.4012973,22.1876788 14.1542159,21.6653729 13.8311152,21.1905465 L10.8093079,16.7497198 C10.1879099,15.8365176 10.4244639,14.5924783 11.337666,13.9710803 C11.3923969,13.9338381 11.4489431,13.8993362 11.5070958,13.8677022 Z" id="路径-5" fill-opacity="0.2" fill="url(#linearGradient-5)" style="mix-blend-mode: normal;"></path>
                        <g id="路径-5">
                            <use fill="url(#linearGradient-6)" fill-rule="evenodd" xlink:href="#path-7"></use>
                            <use fill-opacity="0.1" fill="#FFFFFF" fill-rule="evenodd" xlink:href="#path-7"></use>
                            <use fill="black" fill-opacity="1" filter="url(#filter-8)" xlink:href="#path-7"></use>
                        </g>
                        <path d="M50.5070958,13.8677022 L76,0 L76,0 L76,92 C70.8959183,88.8884312 67.6205101,86.8512701 66.1737755,85.8885169 C64.7270409,84.9257636 62.7795371,83.4872523 60.3312642,81.572983 L61.8526813,79.1059478 C63.1886199,76.9396731 62.8540575,74.138232 61.045551,72.347483 L60.5621592,71.8688376 C59.0331533,70.3548448 56.6668257,70.0834287 54.8347304,71.2119058 L53.1314104,72.2610638 C52.2973615,72.774799 51.2139625,72.6088308 50.5719515,71.8689772 C48.7317356,69.7483122 47.2896146,67.6721441 46.2455886,65.6404727 C44.9946855,63.2062191 43.7036349,60.4289985 42.3724368,57.3088108 C48.7556435,55.7203034 53.133857,52.4895995 55.5070774,47.6166992 C57.4437675,43.6401206 58.8708975,39.8301457 59.7884677,36.1867745 C60.091235,34.9845502 59.3620893,33.7645085 58.159867,33.4617331 C58.0805476,33.4417568 58.0001957,33.4261308 57.9191708,33.4149251 C56.567031,33.2279241 55.2973003,34.1086764 54.9988183,35.4406524 C53.9995711,39.8995113 53.1228491,42.7086819 52.3686523,43.8681641 C47.3970967,51.5113025 41.9327784,52.2440929 40.8517158,52.2440929 C39.880282,47.6218854 39.3028143,44.2281309 39.1193128,42.0628296 C38.9602291,40.1856568 38.9602291,37.0808861 39.1193128,32.7485176 L49.8235863,29.5980646 C52.7505001,28.7366233 54.4248963,25.6655546 53.5634549,22.7386407 C53.4012973,22.1876788 53.1542159,21.6653729 52.8311152,21.1905465 L49.8093079,16.7497198 C49.1879099,15.8365176 49.4244639,14.5924783 50.337666,13.9710803 C50.3923969,13.9338381 50.4489431,13.8993362 50.5070958,13.8677022 Z" id="路径-5" fill="url(#linearGradient-9)" transform="translate(57.500000, 46.000000) scale(-1, 1) translate(-57.500000, -46.000000) "></path>
                    </g>
                </g>
                <path d="M263,199 C288.957495,199 310,177.957495 310,152 C310,126.042505 288.957495,105 263,105 C237.042776,105 216,126.042505 216,152 C216,177.957495 237.042776,199 263,199 Z" id="Path" fill="#EA6F57" fill-rule="nonzero"></path>
                <path d="M514,339 C539.957495,339 561,317.957495 561,292 C561,266.042505 539.957495,245 514,245 C488.042776,245 467,266.042505 467,292 C467,317.957495 488.042776,339 514,339 Z" id="Path备份" fill="#3361C2" fill-rule="nonzero"></path>
                <path d="M271,199 C296.957495,199 318,177.957495 318,152 C318,126.042505 296.957495,105 271,105 C245.042776,105 224,126.042505 224,152 C224,177.957495 245.042776,199 271,199 Z" id="Path" fill="#FFBA5F" fill-rule="nonzero"></path>
                <path d="M522,339 C547.957495,339 569,317.957495 569,292 C569,266.042505 547.957495,245 522,245 C496.042776,245 475,266.042505 475,292 C475,317.957495 496.042776,339 522,339 Z" id="Path备份-2" fill="#9FBFFF" fill-rule="nonzero"></path>
                <path d="M271,187 C290.32999,187 306,171.32999 306,152 C306,132.67001 290.32999,117 271,117 C251.67001,117 236,132.67001 236,152 C236,171.32999 251.67001,187 271,187 Z" id="Path" fill="#F79D52" fill-rule="nonzero"></path>
                <path d="M522,327 C541.32999,327 557,311.32999 557,292 C557,272.67001 541.32999,257 522,257 C502.67001,257 487,272.67001 487,292 C487,311.32999 502.67001,327 522,327 Z" id="Path备份-3" fill="#4364E8" fill-rule="nonzero" opacity="0.6"></path>
                <g id="形状">
                    <use fill="black" fill-opacity="1" filter="url(#filter-11)" xlink:href="#path-10"></use>
                    <use fill="#E25D4B" fill-rule="evenodd" xlink:href="#path-10"></use>
                </g>
                <g id="形状结合" fill-rule="nonzero">
                    <use fill="black" fill-opacity="1" filter="url(#filter-13)" xlink:href="#path-12"></use>
                    <use fill="#4364E8" xlink:href="#path-12"></use>
                </g>
            </g>
        </g>
    </g>
</svg>